<svg xmlns="http://www.w3.org/2000/svg" viewBox="0 0 295.49 54.65"><defs><style>.bfd5fe9f-7d5e-42fd-86c2-faa57deae9b1{fill:#006838;}</style></defs><g id="a317403d-a324-42d9-b53c-8587fe3af613" data-name="Layer 2"><g id="b209e8df-c5c4-4c4b-9474-b27b5f440906" data-name="line redraw"><path class="bfd5fe9f-7d5e-42fd-86c2-faa57deae9b1" d="M15.89,0A13.37,13.37,0,0,1,26.82,5.59c.8,1,.83,1.67.08,2.15a3.34,3.34,0,0,1-.76.48,2.05,2.05,0,0,1-.91.32c-.22,0-.56-.34-1-1-2.13-3.29-4.82-4.95-8.06-4.95A9,9,0,0,0,8.7,5.91a11.72,11.72,0,0,0-2.47,7.66A8.37,8.37,0,0,0,9.1,20.12a27.68,27.68,0,0,0,6.55,3.67c4.68,2.08,7.82,3.8,9.42,5.19a12.13,12.13,0,0,1,4.15,9.66A14.89,14.89,0,0,1,24.51,49.9a15.88,15.88,0,0,1-11.34,4.47A14,14,0,0,1,.48,47.5C.05,46.86.08,46.36.56,46A5.69,5.69,0,0,1,2,45a.71.71,0,0,1,1,.32,4.5,4.5,0,0,0,.4.71q4.32,5.59,8.86,5.59a10.3,10.3,0,0,0,7.91-3.27,11.41,11.41,0,0,0,2.79-7.91,9.66,9.66,0,0,0-3.51-7.9q-1.68-1.44-7.9-4.31a30.55,30.55,0,0,1-8-4.87A12,12,0,0,1,0,14.45,13.13,13.13,0,0,1,4.75,4.15,16.39,16.39,0,0,1,15.89,0Z"/><path class="bfd5fe9f-7d5e-42fd-86c2-faa57deae9b1" d="M44.85,20.29a1.86,1.86,0,0,0-.08-.77,1.7,1.7,0,0,0-.78-.09h-6.8q-1.32,0-1.32-.69v-1c0-.45.55-.68,1.66-.68H56.18c1.07,0,1.6.23,1.6.68v1q0,.69-1.26.69H50.74a5.65,5.65,0,0,0-1.2.06.71.71,0,0,0-.63.8v33a.86.86,0,0,1-1,1H45.82a.87.87,0,0,1-1-1Z"/><path class="bfd5fe9f-7d5e-42fd-86c2-faa57deae9b1" d="M84.2,37.15a1.81,1.81,0,0,0,.41.86L95.42,53.28a.64.64,0,0,1,0,.23c0,.53-.28.8-.85.8H91.93a1.64,1.64,0,0,1-1.38-.52L77.86,36a1.22,1.22,0,0,1-.29-.69c0-.38.42-.51,1.26-.4a45.57,45.57,0,0,0,5,0,7.82,7.82,0,0,0,5.58-2.23,7.18,7.18,0,0,0,2.2-5.32,7.81,7.81,0,0,0-2.51-6.09A8.91,8.91,0,0,0,82.89,19H76.26c-.81,0-1.21.32-1.21,1V53.34a.85.85,0,0,1-1,1H72a.86.86,0,0,1-1-1V18.1a.86.86,0,0,1,1-1H82.89A16.61,16.61,0,0,1,92,19.42a8.37,8.37,0,0,1,4.12,7.49,9.05,9.05,0,0,1-3.26,7.21,10.71,10.71,0,0,1-7.15,2.57C84.7,36.69,84.2,36.84,84.2,37.15Z"/><path class="bfd5fe9f-7d5e-42fd-86c2-faa57deae9b1" d="M283.59,37.15a1.76,1.76,0,0,0,.4.86L294.8,53.28a.49.49,0,0,1,.06.23c0,.53-.29.8-.86.8h-2.69a1.6,1.6,0,0,1-1.37-.52L277.24,36a1.3,1.3,0,0,1-.29-.69c0-.38.42-.51,1.26-.4a45.83,45.83,0,0,0,5,0,7.82,7.82,0,0,0,5.58-2.23,7.21,7.21,0,0,0,2.2-5.32,7.78,7.78,0,0,0-2.52-6.09A8.91,8.91,0,0,0,282.27,19h-6.63c-.8,0-1.2.32-1.2,1V53.34a.86.86,0,0,1-1,1h-2.11a.85.85,0,0,1-1-1V18.1a.85.85,0,0,1,1-1h10.92a16.63,16.63,0,0,1,9.1,2.29,8.39,8.39,0,0,1,4.12,7.49,9.08,9.08,0,0,1-3.26,7.21,10.75,10.75,0,0,1-7.15,2.57C284.08,36.69,283.59,36.84,283.59,37.15Z"/><path class="bfd5fe9f-7d5e-42fd-86c2-faa57deae9b1" d="M115.71,38.84c1.72-4.19,3.47-10,5.23-14.47.27-.74.55-1.1.85-1.1s.58.32.85,1l5.21,14.65c.27.62,1.5,3.82,1.77,4.46l3.69,9.32a1.5,1.5,0,0,0,1.36,1l2.49.06a1,1,0,0,0,.68-.17,1.08,1.08,0,0,0-.11-.8L123.31,14.92c-.19-.54-.44-.8-.74-.8s-.5.21-.69.63L107.24,53c-.19.53,0,.8.51.8h.91a1.14,1.14,0,0,0,1.14-.58l3.93-9.56"/><path class="bfd5fe9f-7d5e-42fd-86c2-faa57deae9b1" d="M236,32.82c0,.88.5,1.31,1.49,1.31h13.44c1.07,0,1.6.22,1.6.65v1c0,.51-.43.76-1.31.76H237.78c-1.18,0-1.79.31-1.83.91V51a.72.72,0,0,0,.63.8,7.16,7.16,0,0,0,1.2,0h14.93c.88,0,1.32.24,1.32.71v1c0,.43-.55.65-1.66.65h-19.5a.87.87,0,0,1-1-1V18.06a.86.86,0,0,1,1-1H251.8c1.07,0,1.6.23,1.6.7v1c0,.46-.44.7-1.32.7h-14.3a5.65,5.65,0,0,0-1.2.06.71.71,0,0,0-.63.79Z"/><path class="bfd5fe9f-7d5e-42fd-86c2-faa57deae9b1" d="M215.46,37.29a.92.92,0,0,0-.52-.26h-6c-.87,0-1.26.26-1.26.76v1.81c0,.44.54.65,1.61.65h2.28v5.81a4.74,4.74,0,0,1-.86,2.9c-.49.56-3.32,2-6.77,2.44-1.85.22-5,.54-7.67-.41a12.52,12.52,0,0,1-5.05-3.84c-2.49-3.29-3.72-7.54-3.72-12.76a20.81,20.81,0,0,1,3.68-12.59,11.35,11.35,0,0,1,9.53-5,13.4,13.4,0,0,1,7.6,2.28c2,1.35,3.19,2.75,3.5,4.24.11.46.31.69.63.69a1.72,1.72,0,0,0,.72-.23l.83-.46a.73.73,0,0,0,.33-.58,2,2,0,0,0-.33-1q-4-6.7-13.19-6.8h-.31a17.19,17.19,0,0,0-4.41.56l-.24.07c-.24.07-.49.14-.73.23a16.85,16.85,0,0,0-4.73,2.53,2.93,2.93,0,0,0-.36.28l-.3.24-.39.34-.32.29-.41.39-.23.23c-.14.14-.28.29-.41.44l-.2.22a19.82,19.82,0,0,0-5.18,13.81v.14c0,.3,0,.58,0,.87.34,10.64,8.12,19.14,17.66,19.14,1.47,0,5.9-.06,9.13-1.48a13,13,0,0,0,4.41-2.81,7.48,7.48,0,0,0,1.52-2.51s.1-.61.1-.61Z"/><path class="bfd5fe9f-7d5e-42fd-86c2-faa57deae9b1" d="M165.67,53.85q-7.42-19.05-11.61-29.57c-.23-.65-.44-1-.63-1s-.28.36-.28,1.08V52.88c0,.65-.17,1-.52,1h-1.31a.45.45,0,0,1-.4-.17,1.67,1.67,0,0,1-.12-.8V17.64c0-.65.17-1,.52-1h3a1.82,1.82,0,0,1,1.78,1.26Q164.31,38.69,167,45.16c.19.49.36.74.51.74s.37-.21.52-.63l.09-28.6h2.69a.85.85,0,0,1,1,1V52.88a.85.85,0,0,1-1,1h-2.06"/></g></g></svg>