<svg xmlns="http://www.w3.org/2000/svg" xmlns:xlink="http://www.w3.org/1999/xlink" viewBox="0 0 180.54 74.86"><defs><style>.e1aa99d0-4371-42ad-b1f1-060b0c740b79{fill:url(#ab541941-eed6-462b-b55d-5ce3b0376756);}</style><linearGradient id="ab541941-eed6-462b-b55d-5ce3b0376756" y1="37.43" x2="180.54" y2="37.43" gradientUnits="userSpaceOnUse"><stop offset="0" stop-color="#fff33b"/><stop offset="0.04" stop-color="#fee72e"/><stop offset="0.12" stop-color="#fed51b"/><stop offset="0.2" stop-color="#fdca10"/><stop offset="0.28" stop-color="#fdc70c"/><stop offset="0.67" stop-color="#f3903f"/><stop offset="0.89" stop-color="#ed683c"/><stop offset="1" stop-color="#e93e3a"/></linearGradient></defs><g id="a567b329-bebb-4b62-b0ec-4d0a45c71b3b" data-name="Layer 2"><g id="e2172f1c-139a-4b7f-97ed-f34144d3fd8c" data-name="line redraw"><path class="e1aa99d0-4371-42ad-b1f1-060b0c740b79" d="M173.64,72.17A86.8,86.8,0,0,0,163,46.45a88.84,88.84,0,0,0-18.38-21.12A95.34,95.34,0,0,0,93.07,3.72,91.37,91.37,0,0,0,64.7,5.29,87.83,87.83,0,0,0,38.16,15.77a93.3,93.3,0,0,0-22,18.42A118,118,0,0,0,0,58.12a118.66,118.66,0,0,1,15.5-24.5A94.86,94.86,0,0,1,37.24,14.28,89.73,89.73,0,0,1,64.1,2.74,94.39,94.39,0,0,1,93.36.23a99.74,99.74,0,0,1,54.54,21,92.79,92.79,0,0,1,32.52,49.19,3.5,3.5,0,0,1-6.76,1.82S173.64,72.2,173.64,72.17Z"/></g></g></svg>