<svg xmlns="http://www.w3.org/2000/svg" xmlns:xlink="http://www.w3.org/1999/xlink" viewBox="0 0 174.67 60.98"><defs><style>.f369a2b9-900e-4d14-a11e-7a0bf4636eda{fill:url(#b46bbeba-e40e-4753-9e81-c4f82feea869);}</style><linearGradient id="b46bbeba-e40e-4753-9e81-c4f82feea869" y1="30.49" x2="174.67" y2="30.49" gradientUnits="userSpaceOnUse"><stop offset="0" stop-color="#fff33b"/><stop offset="0.04" stop-color="#fee72e"/><stop offset="0.12" stop-color="#fed51b"/><stop offset="0.2" stop-color="#fdca10"/><stop offset="0.28" stop-color="#fdc70c"/><stop offset="0.67" stop-color="#f3903f"/><stop offset="0.89" stop-color="#ed683c"/><stop offset="1" stop-color="#e93e3a"/></linearGradient></defs><g id="f54f0415-9c2f-453a-811f-4ae4c5187d2b" data-name="Layer 2"><g id="a8349386-3e48-4b38-bb14-61e1a983a5f9" data-name="line redraw"><path class="f369a2b9-900e-4d14-a11e-7a0bf4636eda" d="M6.67,5.64A88.23,88.23,0,0,0,21,27.28,89.28,89.28,0,0,0,41.08,43.86,94.09,94.09,0,0,0,91.35,57.35a91.29,91.29,0,0,0,26.1-4.29,88.69,88.69,0,0,0,23.79-11.8,93.51,93.51,0,0,0,19.41-18.34A112.8,112.8,0,0,0,174.67,0a112.84,112.84,0,0,1-13.33,23.45,94.44,94.44,0,0,1-19.07,19.23,90.76,90.76,0,0,1-24,12.86,93.92,93.92,0,0,1-26.82,5.31,98.54,98.54,0,0,1-53-12.46A94.81,94.81,0,0,1,16.48,31.45,94.19,94.19,0,0,1,.38,8.7,3.5,3.5,0,1,1,6.63,5.54Z"/></g></g></svg>