<svg xmlns="http://www.w3.org/2000/svg" viewBox="0 0 243.09 243.08"><defs><style>.cls-1{fill:#56cbf5;}.cls-1,.cls-2{stroke:#fff;stroke-miterlimit:10;}.cls-2{fill:#fff;}</style></defs><title>Q1</title><g id="Layer_2" data-name="Layer 2"><g id="Layer_1-2" data-name="Layer 1"><g id="Layer_3" data-name="Layer 3"><g id="TOP_LEFT" data-name="TOP LEFT"><path class="cls-1" d="M242.06,157.85V.5C108.65.5.5,108.65.5,242.06H157.85A84.86,84.86,0,0,1,242.06,157.85Z"/><path class="cls-2" d="M242.06,157.85V57.09c-102.15,0-185,82.82-185,185H157.85A84.86,84.86,0,0,1,242.06,157.85Z"/><path class="cls-1" d="M242.59,157.84V67.28c-32.19,0-59.64,7.35-87.51,23.44l45.28,78.44A84.52,84.52,0,0,1,242.59,157.84Z"/><path class="cls-1" d="M200.18,169.27,154.89,90.83c-27.87,16.1-48,36.19-64.06,64.06l78.44,45.29A85.14,85.14,0,0,1,200.18,169.27Z"/><path class="cls-1" d="M169.16,200.36,90.72,155.08C74.63,183,67.28,210.4,67.28,242.58h90.56A84.48,84.48,0,0,1,169.16,200.36Z"/></g></g></g></g></svg>