<svg xmlns="http://www.w3.org/2000/svg" xmlns:xlink="http://www.w3.org/1999/xlink" viewBox="0 0 243.09 243.08"><defs><style>.cls-1,.cls-2,.cls-3,.cls-4,.cls-5{stroke:#fff;stroke-miterlimit:10;}.cls-1{fill:url(#New_Gradient_Swatch_7);}.cls-2,.cls-6{fill:#fff;}.cls-3{fill:url(#linear-gradient);}.cls-4{fill:url(#linear-gradient-2);}.cls-5{fill:url(#linear-gradient-3);}</style><linearGradient id="New_Gradient_Swatch_7" x1="0.5" y1="121.28" x2="242.06" y2="121.28" gradientUnits="userSpaceOnUse"><stop offset="0" stop-color="#9cb3c4"/><stop offset="0.2" stop-color="#98abbb"/><stop offset="0.53" stop-color="#8d96a3"/><stop offset="0.95" stop-color="#7c737b"/><stop offset="1" stop-color="#7a6f76"/></linearGradient><linearGradient id="linear-gradient" x1="193.95" y1="78.9" x2="248.52" y2="156.84" gradientUnits="userSpaceOnUse"><stop offset="0" stop-color="#3b8aaa"/><stop offset="0.29" stop-color="#7cb1c6"/><stop offset="0.63" stop-color="#c2dbe5"/><stop offset="0.88" stop-color="#eef5f8"/><stop offset="1" stop-color="#fff"/></linearGradient><linearGradient id="linear-gradient-2" x1="116.18" y1="111.29" x2="174.14" y2="211.68" gradientUnits="userSpaceOnUse"><stop offset="0.13" stop-color="#5a9cb7"/><stop offset="0.29" stop-color="#7cb1c6"/><stop offset="0.63" stop-color="#c2dbe5"/><stop offset="0.88" stop-color="#eef5f8"/><stop offset="1" stop-color="#fff"/></linearGradient><linearGradient id="linear-gradient-3" x1="75.58" y1="178.83" x2="158.37" y2="261.62" gradientUnits="userSpaceOnUse"><stop offset="0" stop-color="#3e8bab"/><stop offset="0.28" stop-color="#7cb0c6"/><stop offset="0.63" stop-color="#c2dbe5"/><stop offset="0.87" stop-color="#eef5f8"/><stop offset="1" stop-color="#fff"/></linearGradient></defs><title>Q1</title><g id="Layer_2" data-name="Layer 2"><g id="Layer_1-2" data-name="Layer 1"><g id="Layer_3" data-name="Layer 3"><g id="TOP_LEFT" data-name="TOP LEFT"><path class="cls-1" d="M242.06,157.85V.5C108.65.5.5,108.65.5,242.06H157.85A84.86,84.86,0,0,1,242.06,157.85Z"/><path class="cls-2" d="M242.06,157.85V57.09c-102.15,0-185,82.82-185,185H157.85A84.86,84.86,0,0,1,242.06,157.85Z"/><path class="cls-3" d="M242.59,157.84V67.28c-32.19,0-59.64,7.35-87.51,23.44l45.28,78.44A84.52,84.52,0,0,1,242.59,157.84Z"/><path class="cls-4" d="M200.18,169.27,154.89,90.83c-27.87,16.1-48,36.19-64.06,64.06l78.44,45.29A85.14,85.14,0,0,1,200.18,169.27Z"/><path class="cls-5" d="M169.16,200.36,90.72,155.08C74.63,183,67.28,210.4,67.28,242.58h90.56A84.48,84.48,0,0,1,169.16,200.36Z"/><path d="M90.24,201.65h1.81c1.38,0,2.18.58,2.18,1.74a1.59,1.59,0,0,1-.83,1.4,1.7,1.7,0,0,1,1,1.66c0,1.34-.9,1.94-2.26,1.94H90.24Zm1.29,2.67H92c.58,0,1-.33,1-.79s-.29-.81-.9-.81h-.51Zm0,3h.54a.92.92,0,0,0,1-1c0-.65-.45-1-1.12-1h-.45Z"/><path d="M95.42,208.39v-5.08h1.14V204h0a1.27,1.27,0,0,1,1.22-.77v1.27a2.28,2.28,0,0,0-.63-.13.56.56,0,0,0-.58.56v3.47Z"/><path d="M98.41,204.8a1.7,1.7,0,0,1,1.89-1.58c1.25,0,1.73.64,1.73,1.54V208a1.84,1.84,0,0,0,.06.41h-1.17c0-.13,0-.29-.09-.49a2,2,0,0,1-1.4.59,1.07,1.07,0,0,1-1.16-1.22c0-1.17,1.12-1.68,2.58-2.12v-.37a.55.55,0,0,0-.6-.61.63.63,0,0,0-.66.63Zm2.44,1.11c-.7.24-1.41.63-1.41,1.17a.49.49,0,0,0,.53.53,1.23,1.23,0,0,0,.88-.47Z"/><path d="M103.2,208.39v-5.08h1.14v.58a2.11,2.11,0,0,1,1.31-.67c.72,0,1.1.36,1.1,1.31v3.86h-1.18v-3.73c0-.34-.11-.56-.43-.56a1.39,1.39,0,0,0-.76.46v3.83Z"/><path d="M110.34,208.39v-.61h0a1.67,1.67,0,0,1-1.25.71c-.92,0-1.29-.71-1.29-2v-1.23c0-1.31.37-2,1.29-2a2.08,2.08,0,0,1,1.17.56v-2.13h1.18v6.74Zm-.1-3.93a.93.93,0,0,0-.71-.36c-.31,0-.58.2-.58,1.21v1.09c0,1,.27,1.21.58,1.21a.93.93,0,0,0,.71-.36Z"/><path d="M118,203.53c-.22-.64-.5-.91-1-.91a.67.67,0,0,0-.71.74c0,1,2.88,1.09,2.88,3.2a1.9,1.9,0,0,1-2.15,1.93,2.19,2.19,0,0,1-2.2-1.9l1.27-.27c.15.81.61,1.1,1,1.1a.75.75,0,0,0,.79-.8c0-1.27-2.87-1.29-2.87-3.18a1.78,1.78,0,0,1,2-1.88,2,2,0,0,1,2.07,1.63Z"/><path d="M120.22,204.8a1.7,1.7,0,0,1,1.89-1.58c1.25,0,1.73.64,1.73,1.54V208a1.84,1.84,0,0,0,.06.41h-1.17c0-.13,0-.29-.09-.49a2,2,0,0,1-1.4.59,1.08,1.08,0,0,1-1.17-1.22c0-1.17,1.12-1.68,2.59-2.12v-.37a.55.55,0,0,0-.61-.61.63.63,0,0,0-.65.63Zm2.44,1.11c-.7.24-1.41.63-1.41,1.17a.49.49,0,0,0,.52.53,1.24,1.24,0,0,0,.89-.47Z"/><path d="M127,202.59h-.34c-.28,0-.4.17-.4.43v.52h.7v1h-.7v3.9h-1.18v-3.9h-.53v-1h.53v-.49c0-1.17.5-1.49,1.36-1.49.17,0,.36,0,.56.05Z"/><path d="M128.69,206.13v.68a.64.64,0,0,0,.69.72.63.63,0,0,0,.69-.7h1.18a1.65,1.65,0,0,1-1.87,1.66,1.72,1.72,0,0,1-1.87-1.81V205a1.87,1.87,0,0,1,3.74-.07v1.18Zm1.38-.95v-.28c0-.45-.21-.73-.69-.73s-.69.28-.69.73v.28Z"/><path d="M131.77,204.49v-1h.47v-1.38h1.18v1.38h.75v1h-.75v2.6c0,.25.21.37.53.37h.23v1a3.78,3.78,0,0,1-.67.05c-.77,0-1.27-.28-1.27-1v-3Z"/><path d="M134.61,209.14a2,2,0,0,0,.35,0,.87.87,0,0,0,.85-.67,4,4,0,0,0-.22-1.08l-1.17-4.1h1.19l.8,3.37h0l.74-3.37h1.2L137,208.38c-.36,1.37-.84,1.81-2,1.81l-.38,0Z"/><path d="M90.11,215.31A1.68,1.68,0,0,1,92,213.73c1.26,0,1.73.64,1.73,1.54v3.22a1.54,1.54,0,0,0,.07.42H92.61c0-.14,0-.29-.08-.5a1.94,1.94,0,0,1-1.4.59A1.08,1.08,0,0,1,90,217.79c0-1.18,1.12-1.69,2.59-2.12v-.38a.56.56,0,0,0-.61-.61.63.63,0,0,0-.65.63Zm2.44,1.11c-.7.24-1.41.64-1.41,1.17a.48.48,0,0,0,.52.53,1.25,1.25,0,0,0,.89-.47Z"/><path d="M94.89,218.91v-5.08H96v.57a2.11,2.11,0,0,1,1.32-.67c.72,0,1.09.37,1.09,1.31v3.87H97.26v-3.74c0-.34-.11-.56-.43-.56a1.39,1.39,0,0,0-.76.46v3.84Z"/><path d="M102,218.91v-.62h0a1.66,1.66,0,0,1-1.25.71c-.92,0-1.29-.71-1.29-2v-1.23c0-1.31.37-2,1.29-2a2.07,2.07,0,0,1,1.18.56v-2.13h1.17v6.75Zm-.09-3.94a1,1,0,0,0-.71-.36c-.32,0-.58.21-.58,1.21v1.09c0,1,.26,1.21.58,1.21a1,1,0,0,0,.71-.36Z"/><path d="M106.39,218.91l1.68-6.75h1.65l1.62,6.75h-1.23l-.33-1.42H108l-.36,1.42Zm1.84-2.56h1.28l-.62-2.73h0Z"/><path d="M114.49,218.91v-.62h0a1.68,1.68,0,0,1-1.26.71c-.91,0-1.28-.71-1.28-2v-1.23c0-1.31.37-2,1.28-2a2.07,2.07,0,0,1,1.18.56v-2.13h1.18v6.75ZM114.4,215a.93.93,0,0,0-.71-.36c-.32,0-.58.21-.58,1.21v1.09c0,1,.26,1.21.58,1.21a.93.93,0,0,0,.71-.36Z"/><path d="M119.32,218.91v-6.75h3.36v1.14h-2.07v1.55h1.62V216h-1.62v2.92Z"/><path d="M123.45,218.91v-5.08h1.15v.67h0a1.27,1.27,0,0,1,1.22-.77V215a2.71,2.71,0,0,0-.63-.13.56.56,0,0,0-.58.56v3.48Z"/><path d="M126.45,215.31a1.68,1.68,0,0,1,1.88-1.58c1.25,0,1.73.64,1.73,1.54v3.22a1.54,1.54,0,0,0,.07.42H129c0-.14,0-.29-.09-.5a1.91,1.91,0,0,1-1.4.59,1.07,1.07,0,0,1-1.16-1.21c0-1.18,1.12-1.69,2.58-2.12v-.38a.55.55,0,0,0-.6-.61.64.64,0,0,0-.66.63Zm2.43,1.11c-.7.24-1.41.64-1.41,1.17a.49.49,0,0,0,.53.53,1.23,1.23,0,0,0,.88-.47Z"/><path d="M134.78,213.83v5.08h-1.14v-.58a2.11,2.11,0,0,1-1.32.67c-.72,0-1.09-.37-1.09-1.31v-3.86h1.18v3.73c0,.34.11.56.43.56a1.39,1.39,0,0,0,.76-.46v-3.83Z"/><path d="M138.37,218.91v-.62h0a1.67,1.67,0,0,1-1.25.71c-.92,0-1.29-.71-1.29-2v-1.23c0-1.31.37-2,1.29-2a2.08,2.08,0,0,1,1.17.56v-2.13h1.18v6.75Zm-.1-3.94a.92.92,0,0,0-.71-.36c-.31,0-.57.21-.57,1.21v1.09c0,1,.26,1.21.57,1.21a.92.92,0,0,0,.71-.36Z"/><path d="M115.49,140.92h1.81c1.38,0,2.18.58,2.18,1.74a1.6,1.6,0,0,1-.83,1.4,1.68,1.68,0,0,1,1,1.66c0,1.33-.9,1.94-2.26,1.94h-1.89Zm1.29,2.67h.45c.58,0,1-.34,1-.79s-.29-.82-.9-.82h-.51Zm0,3h.54a.93.93,0,0,0,1-1c0-.65-.45-1-1.12-1h-.45Z"/><path d="M120.67,147.66v-5.08h1.15v.67h0a1.26,1.26,0,0,1,1.21-.76v1.27a2.28,2.28,0,0,0-.63-.13.56.56,0,0,0-.58.56v3.47Z"/><path d="M123.67,144.07a1.68,1.68,0,0,1,1.88-1.58c1.26,0,1.73.63,1.73,1.54v3.22a1.41,1.41,0,0,0,.07.41h-1.18c0-.13,0-.29-.08-.49a2,2,0,0,1-1.4.58,1.08,1.08,0,0,1-1.17-1.21c0-1.18,1.12-1.68,2.58-2.12v-.37a.55.55,0,0,0-.6-.61.63.63,0,0,0-.66.63Zm2.43,1.11c-.7.24-1.41.63-1.41,1.16a.5.5,0,0,0,.53.54,1.23,1.23,0,0,0,.88-.47Z"/><path d="M128.45,147.66v-5.08h1.14v.58a2.11,2.11,0,0,1,1.32-.67c.72,0,1.09.36,1.09,1.3v3.87h-1.18v-3.73c0-.34-.11-.57-.43-.57s-.51.24-.76.46v3.84Z"/><path d="M135.59,147.66V147h0a1.67,1.67,0,0,1-1.25.71c-.92,0-1.29-.71-1.29-2V144.5c0-1.3.37-2,1.29-2a2.05,2.05,0,0,1,1.17.56v-2.13h1.18v6.74Zm-.1-3.93a.93.93,0,0,0-.7-.37c-.32,0-.58.21-.58,1.22v1.08c0,1,.26,1.22.58,1.22a.93.93,0,0,0,.7-.37Z"/><path d="M140.49,147.66v-6.74h1.85c1.59,0,2.37.75,2.37,2s-.78,2-2.37,2h-.57v2.71Zm1.28-3.77h.7a1,1,0,0,0,0-1.91h-.7Z"/><path d="M149.14,142.58v5.08H148v-.58a2.11,2.11,0,0,1-1.32.67c-.72,0-1.09-.36-1.09-1.3v-3.87h1.17v3.74c0,.33.12.56.43.56s.52-.24.77-.46v-3.84Z"/><path d="M150.26,147.66v-5.08h1.15v.67h0a1.26,1.26,0,0,1,1.21-.76v1.27a2.21,2.21,0,0,0-.62-.13.55.55,0,0,0-.58.56v3.47Z"/><path d="M154.45,142.58v.62h0a1.67,1.67,0,0,1,1.25-.71c.92,0,1.29.71,1.29,2v1.24c0,1.3-.37,2-1.29,2a2.08,2.08,0,0,1-1.17-.56v2.26h-1.18v-6.87Zm.1,3.93a1,1,0,0,0,.71.37c.32,0,.58-.21.58-1.22v-1.08c0-1-.26-1.22-.58-1.22a1,1,0,0,0-.71.37Z"/><path d="M158,144.41a1.87,1.87,0,1,1,3.73,0v1.42a1.87,1.87,0,1,1-3.73,0Zm1.18,1.72c0,.39.28.6.69.6s.69-.21.69-.6v-2c0-.39-.28-.6-.69-.6s-.69.21-.69.6Z"/><path d="M165,144.13a.87.87,0,0,0-.82-.69.45.45,0,0,0-.47.46c0,.78,2.29.8,2.29,2.31a1.5,1.5,0,0,1-1.69,1.54c-.71,0-1.34-.17-1.91-1.44l1.06-.29a.86.86,0,0,0,.85.78c.36,0,.57-.17.57-.45,0-1-2.29-.73-2.29-2.44a1.43,1.43,0,0,1,1.6-1.42,1.83,1.83,0,0,1,1.78,1.27Z"/><path d="M168,145.4v.67a.65.65,0,0,0,.69.73.64.64,0,0,0,.69-.71h1.18a1.65,1.65,0,0,1-1.87,1.66,1.72,1.72,0,0,1-1.87-1.8v-1.66a1.87,1.87,0,0,1,3.74-.08v1.19Zm1.38-1v-.28a.64.64,0,0,0-.69-.73c-.48,0-.69.28-.69.73v.28Z"/><path d="M115.37,154.58a1.68,1.68,0,0,1,1.88-1.58c1.25,0,1.73.63,1.73,1.54v3.22a1.84,1.84,0,0,0,.06.41h-1.17c0-.13-.05-.29-.09-.49a2,2,0,0,1-1.4.59,1.08,1.08,0,0,1-1.16-1.22c0-1.18,1.12-1.68,2.58-2.12v-.37a.55.55,0,0,0-.6-.61.63.63,0,0,0-.66.63Zm2.43,1.11c-.7.24-1.41.63-1.41,1.17a.49.49,0,0,0,.53.53,1.23,1.23,0,0,0,.88-.47Z"/><path d="M120.15,158.17v-5.08h1.14v.58a2.11,2.11,0,0,1,1.31-.67c.72,0,1.1.36,1.1,1.31v3.86h-1.18v-3.73c0-.34-.11-.56-.43-.56a1.43,1.43,0,0,0-.76.45v3.84Z"/><path d="M127.29,158.17v-.61h0a1.7,1.7,0,0,1-1.25.71c-.92,0-1.29-.71-1.29-2V155c0-1.31.37-2,1.29-2a2.08,2.08,0,0,1,1.17.56v-2.13h1.18v6.74Zm-.1-3.93a.93.93,0,0,0-.71-.36c-.31,0-.58.2-.58,1.21v1.08c0,1,.27,1.22.58,1.22a.91.91,0,0,0,.71-.37Z"/><path d="M135,153.31c-.22-.64-.5-.91-1-.91a.67.67,0,0,0-.71.74c0,1,2.88,1.09,2.88,3.2a1.9,1.9,0,0,1-2.15,1.93,2.19,2.19,0,0,1-2.2-1.9l1.27-.27c.15.81.62,1.1,1,1.1a.75.75,0,0,0,.79-.8c0-1.27-2.87-1.29-2.87-3.18a1.77,1.77,0,0,1,2-1.88,2,2,0,0,1,2.08,1.63Z"/><path d="M140.83,153.09v5.08H139.7v-.58a2.1,2.1,0,0,1-1.32.68c-.72,0-1.09-.37-1.09-1.31v-3.87h1.17v3.74c0,.33.11.56.43.56s.52-.24.77-.46v-3.84Z"/><path d="M144.2,154.64a.88.88,0,0,0-.81-.69.46.46,0,0,0-.48.46c0,.78,2.3.8,2.3,2.31a1.51,1.51,0,0,1-1.69,1.55c-.71,0-1.35-.18-1.92-1.45l1.06-.29a.86.86,0,0,0,.86.78c.35,0,.57-.17.57-.45,0-1-2.3-.73-2.3-2.44A1.44,1.44,0,0,1,143.4,153a1.82,1.82,0,0,1,1.77,1.27Z"/><path d="M145.6,154.27v-1h.47v-1.39h1.18v1.39H148v1h-.75v2.59c0,.26.21.38.53.38H148v1a3.78,3.78,0,0,1-.67.05c-.77,0-1.27-.28-1.27-1v-3Z"/><path d="M148.59,154.58a1.7,1.7,0,0,1,1.89-1.58c1.25,0,1.73.63,1.73,1.54v3.22a1.4,1.4,0,0,0,.06.41h-1.18c0-.13,0-.29-.08-.49a2,2,0,0,1-1.4.59,1.08,1.08,0,0,1-1.17-1.22c0-1.18,1.12-1.68,2.59-2.12v-.37a.55.55,0,0,0-.61-.61.63.63,0,0,0-.65.63Zm2.44,1.11c-.7.24-1.41.63-1.41,1.17a.49.49,0,0,0,.52.53,1.24,1.24,0,0,0,.89-.47Z"/><path d="M153.52,152.21v-1.06h1.18v1.06Zm1.18.88v5.08h-1.18v-5.08Z"/><path d="M156,158.17v-5.08h1.14v.58a2.11,2.11,0,0,1,1.32-.67c.72,0,1.09.36,1.09,1.31v3.86h-1.17v-3.73c0-.34-.12-.56-.43-.56a1.42,1.42,0,0,0-.77.45v3.84Z"/><path d="M160.53,154.58a1.7,1.7,0,0,1,1.89-1.58c1.25,0,1.73.63,1.73,1.54v3.22a1.84,1.84,0,0,0,.06.41H163c0-.13,0-.29-.09-.49a2,2,0,0,1-1.4.59,1.08,1.08,0,0,1-1.17-1.22c0-1.18,1.12-1.68,2.59-2.12v-.37a.55.55,0,0,0-.61-.61.63.63,0,0,0-.65.63Zm2.44,1.11c-.7.24-1.41.63-1.41,1.17a.49.49,0,0,0,.52.53,1.24,1.24,0,0,0,.89-.47Z"/><path d="M165.32,158.17v-6.74h1.17v2.13a2.07,2.07,0,0,1,1.18-.56c.92,0,1.29.71,1.29,2v1.23c0,1.31-.37,2-1.29,2a1.68,1.68,0,0,1-1.25-.71h0v.61Zm1.17-1.15a.93.93,0,0,0,.71.37c.32,0,.58-.21.58-1.22v-1.08c0-1-.26-1.21-.58-1.21a1,1,0,0,0-.71.36Z"/><path d="M170.14,152.21v-1.06h1.17v1.06Zm1.17.88v5.08h-1.17v-5.08Z"/><path d="M172.74,151.43h1.17v6.74h-1.17Z"/><path d="M175.33,152.21v-1.06h1.18v1.06Zm1.18.88v5.08h-1.18v-5.08Z"/><path d="M177.28,154.27v-1h.46v-1.39h1.18v1.39h.76v1h-.76v2.59c0,.26.22.38.53.38h.24v1a3.89,3.89,0,0,1-.68.05c-.76,0-1.27-.28-1.27-1v-3Z"/><path d="M180.12,158.92a1.88,1.88,0,0,0,.34,0,.86.86,0,0,0,.85-.67,4.31,4.31,0,0,0-.21-1.08l-1.18-4.1h1.2l.79,3.36h0l.74-3.36h1.19l-1.35,5.06c-.37,1.38-.84,1.82-2,1.82l-.37,0Z"/><path d="M186.82,116.66a1.68,1.68,0,0,1,1.88-1.58c1.25,0,1.73.64,1.73,1.54v3.22a1.41,1.41,0,0,0,.07.41h-1.18c0-.13,0-.29-.08-.49a2,2,0,0,1-1.41.59,1.07,1.07,0,0,1-1.16-1.22c0-1.17,1.12-1.68,2.58-2.12v-.37a.55.55,0,0,0-.6-.61.63.63,0,0,0-.66.63Zm2.43,1.11c-.7.24-1.41.64-1.41,1.17a.49.49,0,0,0,.53.53,1.23,1.23,0,0,0,.88-.47Z"/><path d="M191.6,120.25v-5.08h1.14v.58a2.11,2.11,0,0,1,1.32-.67c.72,0,1.09.37,1.09,1.31v3.86H194v-3.73c0-.34-.11-.56-.43-.56a1.39,1.39,0,0,0-.76.46v3.83Z"/><path d="M198.74,120.25v-.61h0a1.67,1.67,0,0,1-1.25.71c-.92,0-1.29-.71-1.29-2V117.1c0-1.31.37-2,1.29-2a2.05,2.05,0,0,1,1.17.56v-2.13h1.18v6.74Zm-.1-3.93a.92.92,0,0,0-.71-.36c-.31,0-.57.2-.57,1.21v1.09c0,1,.26,1.21.57,1.21a.92.92,0,0,0,.71-.36Z"/><path d="M203.56,120.25v-6.74h3.53v1.14h-2.24v1.55h1.71v1.14h-1.71v1.78h2.33v1.13Z"/><path d="M211.76,115.17v6.88h-1.17v-2.26a2.07,2.07,0,0,1-1.18.56c-.92,0-1.29-.71-1.29-2V117.1c0-1.31.37-2,1.29-2a1.66,1.66,0,0,1,1.25.71h0v-.62Zm-1.17,1.15a1,1,0,0,0-.71-.36c-.32,0-.58.2-.58,1.21v1.09c0,1,.26,1.21.58,1.21a1,1,0,0,0,.71-.36Z"/><path d="M216.43,115.17v5.08H215.3v-.57a2.13,2.13,0,0,1-1.32.67c-.72,0-1.09-.37-1.09-1.31v-3.87h1.17v3.74c0,.34.11.56.43.56a1.42,1.42,0,0,0,.77-.46v-3.84Z"/><path d="M217.45,116.66a1.68,1.68,0,0,1,1.88-1.58c1.25,0,1.73.64,1.73,1.54v3.22a1.84,1.84,0,0,0,.06.41H220c0-.13,0-.29-.09-.49a2,2,0,0,1-1.4.59,1.07,1.07,0,0,1-1.16-1.22c0-1.17,1.12-1.68,2.58-2.12v-.37a.55.55,0,0,0-.6-.61.63.63,0,0,0-.66.63Zm2.43,1.11c-.7.24-1.41.64-1.41,1.17a.49.49,0,0,0,.53.53,1.23,1.23,0,0,0,.88-.47Z"/><path d="M222.38,113.51h1.18v6.74h-1.18Z"/><path d="M225,114.3v-1.07h1.17v1.07Zm1.17.87v5.08H225v-5.08Z"/><path d="M226.92,116.35v-.95h.47V114h1.17v1.38h.76v.95h-.76V119c0,.25.22.37.54.37h.23v1a3.78,3.78,0,0,1-.67,0c-.77,0-1.27-.28-1.27-1v-3Z"/><path d="M229.76,121a2,2,0,0,0,.35,0,.87.87,0,0,0,.85-.67,4.39,4.39,0,0,0-.22-1.08l-1.18-4.1h1.2l.79,3.37h0l.74-3.37h1.2l-1.36,5.07c-.36,1.37-.84,1.81-2,1.81l-.37,0Z"/><path d="M187,109.74V103h1.29v6.74Z"/><path d="M189.53,109.74v-5.08h1.14v.58a2.11,2.11,0,0,1,1.31-.67c.72,0,1.1.36,1.1,1.31v3.86H191.9V106c0-.34-.11-.56-.43-.56a1.45,1.45,0,0,0-.77.46v3.83Z"/><path d="M196.66,106.42v-.23c0-.39-.28-.59-.69-.59s-.69.2-.69.59v2c0,.39.28.6.69.6s.69-.21.69-.6v-.32h1.18v0a1.87,1.87,0,1,1-3.73,0v-1.42a1.86,1.86,0,1,1,3.72-.07Z"/><path d="M199,103h1.18v6.74H199Z"/><path d="M205,104.66v5.08h-1.14v-.58a2.07,2.07,0,0,1-1.32.68c-.72,0-1.09-.37-1.09-1.31v-3.87h1.17v3.74c0,.33.12.56.43.56s.52-.24.77-.46v-3.84Z"/><path d="M208.38,106.21a.88.88,0,0,0-.81-.69.46.46,0,0,0-.48.46c0,.78,2.3.8,2.3,2.32a1.51,1.51,0,0,1-1.69,1.54c-.71,0-1.35-.18-1.91-1.45l1.05-.29a.86.86,0,0,0,.86.78c.35,0,.57-.16.57-.44,0-1-2.3-.74-2.3-2.45a1.45,1.45,0,0,1,1.61-1.42,1.81,1.81,0,0,1,1.77,1.27Z"/><path d="M210.44,103.79v-1.07h1.17v1.07Zm1.17.87v5.08h-1.17v-5.08Z"/><path d="M212.79,106.49a1.87,1.87,0,1,1,3.74,0v1.42a1.87,1.87,0,1,1-3.74,0Zm1.18,1.72c0,.39.28.6.69.6s.69-.21.69-.6v-2c0-.39-.28-.59-.69-.59s-.69.2-.69.59Z"/><path d="M217.56,109.74v-5.08h1.14v.58a2.11,2.11,0,0,1,1.31-.67c.72,0,1.1.36,1.1,1.31v3.86h-1.18V106c0-.34-.11-.56-.43-.56a1.45,1.45,0,0,0-.77.46v3.83Z"/><path class="cls-6" d="M44.9,158a2,2,0,0,0-2,1.27c-.33.84-.24,1.57.54,1.88,1.73.7,3.45-4.62,6.7-3.31,2.06.82,2.57,2.53,1.68,4.76a4.29,4.29,0,0,1-3.89,2.8l-.06-1.87A2.47,2.47,0,0,0,50.29,162c.39-1,.32-1.84-.65-2.23-2-.8-3.67,4.53-6.76,3.29-1.8-.72-2.21-2.63-1.51-4.37a4,4,0,0,1,3.7-2.64Z"/><path class="cls-6" d="M47.63,151.72c.86-1.93,2.82-2.46,5.08-1.45S55.89,153.08,55,155s-2.82,2.45-5.08,1.44S46.77,153.65,47.63,151.72Zm1.37.61c-.42.95.12,1.73,1.71,2.44s2.53.58,2.95-.37S53.54,152.68,52,152,49.42,151.39,49,152.33Z"/><path class="cls-6" d="M54,144.45a1.56,1.56,0,0,0-1.73.86c-.44.94.07,1.73,1.64,2.48s2.52.66,3-.33a1.89,1.89,0,0,0-.41-2l1.32-.93a3.19,3.19,0,0,1,.42,3.65c-.92,1.91-2.89,2.38-5.12,1.31s-3.1-2.9-2.19-4.8a3.08,3.08,0,0,1,3.21-1.88Z"/><path class="cls-6" d="M51.91,139.53l-1.55-.79.85-1.66,1.55.79ZM61,142.05l-.84,1.66-6.95-3.53.84-1.66Z"/><path class="cls-6" d="M59.44,137.31c1.44.75,2.34.41,2.75-.36a2.05,2.05,0,0,0,0-2l1.38-.79a3.5,3.5,0,0,1-.15,3.63c-1,1.79-3,2.16-5.13,1s-3-3-2-4.9,3-2,4.67-1.1l.67.36Zm.31-3.23a1.51,1.51,0,1,0-1.42,2.64Z"/><path class="cls-6" d="M58.88,129.44l-2.24-1.28.93-1.62,2.24,1.28.75-1.33,1.31.75-.76,1.33,3.83,2.18c.36.21.57.09.8-.31a4.22,4.22,0,0,0,.29-.82l1.33.76a12.39,12.39,0,0,1-.62,1.33,1.65,1.65,0,0,1-2.52.78l-4-2.31-.54.94-1.3-.74Z"/><path class="cls-6" d="M68.78,130.61a3.8,3.8,0,0,0,.46-.64,1.21,1.21,0,0,0,.11-1.37,2,2,0,0,0-.63-.73,3.83,3.83,0,0,0-.92-.28L61,125.92l1-1.6,4.77,1.38,0,0-3.42-3.63,1-1.59,5.4,6.15c1.49,1.87,1.66,2.74.87,4a6.76,6.76,0,0,1-.52.74Z"/><path class="cls-6" d="M76.3,116.48l-.63-.28a4,4,0,0,1-.69,2.47,2,2,0,0,1-2.9.58c-1.46-1-1.42-2.72,0-5.42l-.55-.37c-.49-.34-1-.13-1.41.41a2,2,0,0,0-.17,1.95l-1.43.48a3.5,3.5,0,0,1,.46-3.21c1.23-1.7,2.37-2,4.3-.69l3,2.07a3.32,3.32,0,0,0,1,.51Zm-3.2-2c-.5,1.17-1.06,2.44-.16,3a.85.85,0,0,0,1.27-.22,3.24,3.24,0,0,0,.28-1.88Z"/><path class="cls-6" d="M78.34,113.57l-6.28-4.64,1-1.37.68.5a4.26,4.26,0,0,1,.63-2.52c.93-1.26,2.19-1.25,3.47-.31l4.29,3.18-1.1,1.49-4.08-3c-.84-.62-1.31-.56-1.68,0a2.39,2.39,0,0,0-.37,1.89l4.52,3.34Z"/><path class="cls-6" d="M87.36,101.93l-1,1.22-.71-.46A2.86,2.86,0,0,1,85.1,105c-1.31,1.6-3.39,1.26-5.28-.27-1.49-1.21-2.28-3.28-1-4.84a2.71,2.71,0,0,1,1.87-.92l0,0-2.91-2.37L79,95.1ZM81.7,99.72a2.13,2.13,0,0,0-1.42.7c-.7.86-.4,1.92.88,3s2.37,1.12,3.07.26a1.93,1.93,0,0,0,.38-1.55Z"/><path class="cls-6" d="M89.35,87.69a2,2,0,0,0-2.35.46c-.61.66-.79,1.38-.17,1.95,1.36,1.26,4.87-3.1,7.44-.71,1.63,1.51,1.5,3.29-.14,5a4.28,4.28,0,0,1-4.63,1.22l.61-1.76A2.49,2.49,0,0,0,93,93.33c.7-.76,1-1.61.18-2.32-1.56-1.45-5,2.92-7.48.66-1.42-1.32-1.12-3.25.15-4.62A4,4,0,0,1,90.2,85.9Z"/><path class="cls-6" d="M97.06,80.26l5.44,5.59L101.28,87l-.59-.6a4.33,4.33,0,0,1-1,2.38c-1.12,1.09-2.37.88-3.48-.26l-3.72-3.83,1.33-1.29,3.54,3.63c.73.75,1.2.76,1.65.32a2.35,2.35,0,0,0,.67-1.8l-3.92-4Z"/><path class="cls-6" d="M102.9,77.76a2.11,2.11,0,0,0-1.64.35c-.53.48-.58.92-.27,1.27.89,1,3.42-2,5.32.1,1.07,1.21.63,2.57-.59,3.66a3.43,3.43,0,0,1-3.25.78l.31-1.52a2.32,2.32,0,0,0,2.1-.36,1,1,0,0,0,.24-1.4c-.89-1-3.48,2-5.28-.08a2.34,2.34,0,0,1,.42-3.4,3.54,3.54,0,0,1,2.83-.94Z"/><path class="cls-6" d="M104.17,74l-1.66-2,1.43-1.2,1.66,2,1.17-1,1,1.14-1.17,1,2.84,3.37c.28.32.51.28.87,0a4,4,0,0,0,.56-.67l1,1.17a10.3,10.3,0,0,1-1,1,1.63,1.63,0,0,1-2.62-.14l-3-3.55-.83.69-1-1.14Z"/><path class="cls-6" d="M115.88,74.44l-.51-.46A4.05,4.05,0,0,1,114,76.13,2,2,0,0,1,111,75.8c-1.09-1.4-.52-3,1.64-5.17l-.4-.52a1,1,0,0,0-1.47,0,2,2,0,0,0-.76,1.81l-1.51,0A3.47,3.47,0,0,1,109.94,69c1.68-1.26,2.86-1.21,4.3.63l2.26,2.9a3.56,3.56,0,0,0,.81.79Zm-2.45-2.82c-.83.95-1.75,2-1.08,2.86a.84.84,0,0,0,1.27.16,3.19,3.19,0,0,0,.84-1.7Z"/><path class="cls-6" d="M113.5,64.76l-1-1.41L114,62.26l1,1.41Zm6.92,6.4-1.51,1.09-4.56-6.32,1.5-1.09Z"/><path class="cls-6" d="M122.13,69.94l-4.38-6.46,1.41-1,.47.7a4.44,4.44,0,0,1,1.43-2.17c1.29-.87,2.49-.45,3.38.86l3,4.42-1.54,1-2.85-4.2c-.59-.87-1-1-1.57-.6a2.39,2.39,0,0,0-1,1.66l3.16,4.65Z"/><path class="cls-6" d="M132.35,63.24l-.45-.52a4,4,0,0,1-1.65,2,2,2,0,0,1-2.88-.66c-.92-1.51-.18-3.06,2.22-4.94l-.34-.57c-.31-.51-.89-.54-1.46-.2a2,2,0,0,0-1,1.71l-1.5-.15a3.47,3.47,0,0,1,1.74-2.73c1.82-1.06,3-.88,4.21,1.12l1.91,3.14a3.43,3.43,0,0,0,.71.88Zm-2.11-3.09c-.94.85-2,1.78-1.4,2.72a.85.85,0,0,0,1.25.31,3.29,3.29,0,0,0,1-1.6Z"/><path class="cls-6" d="M130.24,51.83l1.63-.89,1.79,3.29h0a2.68,2.68,0,0,1,1.24-1.67c1.77-1,3.66.19,4.58,1.88,1.16,2.13,1.11,4.24-.7,5.23a2.9,2.9,0,0,1-2.34.14l.22.84-1.28.7Zm5.83,6.83a2,2,0,0,0,1.6-.09c1-.53,1.09-1.62.31-3.07s-1.78-1.94-2.75-1.41a2.12,2.12,0,0,0-.95,1.27Z"/><path class="cls-6" d="M138.83,49.12,138,47.57l1.66-.84.78,1.55Zm5.83,7.4-1.66.84-3.53-7,1.66-.84Z"/><path class="cls-6" d="M146.64,55.53,142,45.77l1.67-.8,4.7,9.75Z"/><path class="cls-6" d="M146.72,45.35,146,43.76l1.7-.75.71,1.59ZM152.18,53l-1.7.76-3.17-7.13,1.7-.76Z"/><path class="cls-6" d="M151.39,44.81l-1-2.38,1.72-.72,1,2.38,1.41-.59.58,1.38-1.41.59,1.71,4.07c.17.38.41.41.83.23a3.65,3.65,0,0,0,.73-.47l.6,1.41a10.19,10.19,0,0,1-1.31.68,1.64,1.64,0,0,1-2.47-.91L152,46.19l-1,.42-.58-1.38Z"/><path class="cls-6" d="M158.47,51.7a3.46,3.46,0,0,0,.75-.23c.6-.23.87-.53.92-1a2,2,0,0,0,0-1,4.35,4.35,0,0,0-.56-.78l-4.35-5.47,1.75-.67,2.93,4h0l-.48-5,1.73-.67.52,8.18c0,2.38-.36,3.18-1.79,3.73a7.38,7.38,0,0,1-.86.27Z"/></g></g></g></g></svg>