<svg xmlns="http://www.w3.org/2000/svg" viewBox="0 0 242.56 243.08"><defs><style>.cls-1{fill:#9c499c;}.cls-1,.cls-2{stroke:#fff;stroke-miterlimit:10;}.cls-2{fill:#fff;}</style></defs><title>Q2</title><g id="Layer_2" data-name="Layer 2"><g id="Layer_1-2" data-name="Layer 1"><g id="Layer_3" data-name="Layer 3"><g id="TOP_RIGHT" data-name="TOP RIGHT"><path class="cls-1" d="M1.09,157.84a84.85,84.85,0,0,1,84.84,84.22H242.06C242.06,108.65,133.91.5.5.5V157.85Z"/><path class="cls-2" d="M1.09,157.84a84.85,84.85,0,0,1,84.84,84.22h99.54c0-102.15-82.82-185-185-185V157.85Z"/><path class="cls-1" d="M86,242.58h90.56c0-32.18-7.35-59.63-23.45-87.5L74.63,200.36A84.48,84.48,0,0,1,86,242.58Z"/><path class="cls-1" d="M74.52,200.18,153,154.89c-16.09-27.87-36.18-48-64-64.06L43.61,169.27A85.22,85.22,0,0,1,74.52,200.18Z"/><path class="cls-1" d="M43.42,169.16,88.71,90.72C60.83,74.63,33.39,67.28,1.2,67.28v90.56A84.45,84.45,0,0,1,43.42,169.16Z"/></g></g></g></g></svg>