<svg xmlns="http://www.w3.org/2000/svg" xmlns:xlink="http://www.w3.org/1999/xlink" viewBox="0 0 242.56 243.08"><defs><style>.cls-1,.cls-2,.cls-3,.cls-4,.cls-5{stroke:#fff;stroke-miterlimit:10;}.cls-1{fill:url(#New_Gradient_Swatch_8);}.cls-2,.cls-6{fill:#fff;}.cls-3{fill:url(#linear-gradient);}.cls-4{fill:url(#linear-gradient-2);}.cls-5{fill:url(#linear-gradient-3);}</style><linearGradient id="New_Gradient_Swatch_8" x1="0.5" y1="121.28" x2="242.06" y2="121.28" gradientUnits="userSpaceOnUse"><stop offset="0" stop-color="#81a598"/><stop offset="0.25" stop-color="#809f94"/><stop offset="0.57" stop-color="#7f8f8a"/><stop offset="0.94" stop-color="#7c7579"/><stop offset="1" stop-color="#7b6f76"/></linearGradient><linearGradient id="linear-gradient" x1="161" y1="160.1" x2="102.23" y2="261.9" gradientUnits="userSpaceOnUse"><stop offset="0" stop-color="#a280b9"/><stop offset="0.21" stop-color="#bfa7ce"/><stop offset="0.44" stop-color="#dacce3"/><stop offset="0.66" stop-color="#ede6f1"/><stop offset="0.85" stop-color="#f9f6fa"/><stop offset="1" stop-color="#fdfcfd"/></linearGradient><linearGradient id="linear-gradient-2" x1="119.49" y1="103.82" x2="78.19" y2="217.27" gradientUnits="userSpaceOnUse"><stop offset="0.02" stop-color="#ac8ec1"/><stop offset="0.03" stop-color="#ae90c2"/><stop offset="0.24" stop-color="#cab7d7"/><stop offset="0.44" stop-color="#e0d6e8"/><stop offset="0.64" stop-color="#f0ebf4"/><stop offset="0.83" stop-color="#faf9fb"/><stop offset="1" stop-color="#fdfdfd"/></linearGradient><linearGradient id="linear-gradient-3" x1="44.95" y1="70.07" x2="44.95" y2="164.66" gradientUnits="userSpaceOnUse"><stop offset="0" stop-color="#9974b3"/><stop offset="0.18" stop-color="#ad90c2"/><stop offset="0.56" stop-color="#d6c6e0"/><stop offset="0.85" stop-color="#efe8f3"/><stop offset="1" stop-color="#f8f5fa"/></linearGradient></defs><title>Q2</title><g id="Layer_2" data-name="Layer 2"><g id="Layer_1-2" data-name="Layer 1"><g id="Layer_3" data-name="Layer 3"><g id="TOP_RIGHT" data-name="TOP RIGHT"><path class="cls-1 grow" d="M1.09,157.84a84.85,84.85,0,0,1,84.84,84.22H242.06C242.06,108.65,133.91.5.5.5V157.85Z"/><path class="cls-2 grow" d="M1.09,157.84a84.85,84.85,0,0,1,84.84,84.22h99.54c0-102.15-82.82-185-185-185V157.85Z"/><path class="cls-3" d="M86,242.58h90.56c0-32.18-7.35-59.63-23.45-87.5L74.63,200.36A84.48,84.48,0,0,1,86,242.58Z"/><path class="cls-4" d="M74.52,200.18,153,154.89c-16.09-27.87-36.18-48-64-64.06L43.61,169.27A85.22,85.22,0,0,1,74.52,200.18Z"/><path class="cls-5 grow" d="M43.42,169.16,88.71,90.72C60.83,74.63,33.39,67.28,1.2,67.28v90.56A84.45,84.45,0,0,1,43.42,169.16Z"/><path d="M106.83,214c-.21-.63-.49-.9-.94-.9a.66.66,0,0,0-.71.73c0,1,2.88,1.1,2.88,3.21a1.9,1.9,0,0,1-2.15,1.92,2.19,2.19,0,0,1-2.2-1.9l1.27-.27c.15.82.61,1.11,1,1.11a.76.76,0,0,0,.79-.81c0-1.27-2.88-1.29-2.88-3.17a1.78,1.78,0,0,1,2-1.89,2,2,0,0,1,2.07,1.64Z"/><path d="M112.71,213.83v5.08h-1.14v-.58a2.11,2.11,0,0,1-1.31.67c-.72,0-1.1-.36-1.1-1.31v-3.86h1.18v3.73c0,.34.11.56.43.56a1.45,1.45,0,0,0,.77-.46v-3.83Z"/><path d="M114.92,213.83v.61h0a1.68,1.68,0,0,1,1.25-.71c.91,0,1.29.71,1.29,2V217c0,1.31-.38,2-1.29,2a2.07,2.07,0,0,1-1.18-.56v2.26h-1.17v-6.87Zm.09,3.93a1,1,0,0,0,.71.36c.32,0,.58-.2.58-1.21v-1.08c0-1-.26-1.22-.58-1.22a.93.93,0,0,0-.71.37Z"/><path d="M119.59,213.83v.61h0a1.68,1.68,0,0,1,1.25-.71c.92,0,1.29.71,1.29,2V217c0,1.31-.37,2-1.29,2a2.07,2.07,0,0,1-1.18-.56v2.26h-1.17v-6.87Zm.09,3.93a1,1,0,0,0,.71.36c.32,0,.58-.2.58-1.21v-1.08c0-1-.26-1.22-.58-1.22a.93.93,0,0,0-.71.37Z"/><path d="M123.33,212.16h1.18v6.75h-1.18Z"/><path d="M125.52,219.65a1.88,1.88,0,0,0,.34,0,.87.87,0,0,0,.85-.67,4.25,4.25,0,0,0-.21-1.07l-1.18-4.1h1.19l.8,3.36h0l.74-3.36h1.19l-1.35,5.06c-.37,1.37-.84,1.81-2,1.81l-.37,0Z"/><path d="M133.72,216.91c0,.75.32,1,.84,1s.84-.2.84-1v-.45h1.29v.28c0,1.66-.88,2.26-2.13,2.26s-2.13-.6-2.13-2.26v-2.41c0-1.66.88-2.26,2.13-2.26s2.13.6,2.13,2.26v0H135.4v-.19c0-.74-.33-.95-.84-.95s-.84.21-.84.95Z"/><path d="M137.72,218.91v-6.75h1.18v2.25a1.9,1.9,0,0,1,1.27-.68c.72,0,1.1.37,1.1,1.31v3.87h-1.18v-3.74c0-.33-.11-.56-.43-.56s-.51.24-.76.46v3.84Z"/><path d="M142.28,215.31a1.69,1.69,0,0,1,1.89-1.58c1.25,0,1.72.64,1.72,1.54v3.23a1.41,1.41,0,0,0,.07.41h-1.18c0-.13-.05-.29-.08-.5a1.94,1.94,0,0,1-1.4.59,1.08,1.08,0,0,1-1.17-1.21c0-1.18,1.12-1.68,2.59-2.12v-.38a.54.54,0,0,0-.61-.6.62.62,0,0,0-.65.62Zm2.44,1.11c-.7.25-1.41.64-1.41,1.17a.48.48,0,0,0,.52.53,1.24,1.24,0,0,0,.89-.46Z"/><path d="M147.21,213v-1.07h1.18V213Zm1.18.88v5.08h-1.18v-5.08Z"/><path d="M149.66,218.91v-5.08h1.14v.58a2.07,2.07,0,0,1,1.32-.68c.71,0,1.09.37,1.09,1.31v3.87H152v-3.74c0-.33-.11-.56-.43-.56s-.51.24-.76.46v3.84Z"/><path d="M104.06,208.39v-6.74h1.8l1.17,4.43h0l1.17-4.43H110v6.74h-1.1v-5.3h0l-1.37,5.3h-1l-1.37-5.3h0v5.3Z"/><path d="M112.32,206.13v.68a.64.64,0,0,0,.69.72.63.63,0,0,0,.69-.7h1.18a1.65,1.65,0,0,1-1.87,1.66,1.72,1.72,0,0,1-1.87-1.81V205a1.87,1.87,0,0,1,3.74-.07v1.18Zm1.38-.95v-.28c0-.45-.21-.73-.69-.73a.64.64,0,0,0-.69.73v.28Z"/><path d="M118.37,208.39v-.61h0a1.68,1.68,0,0,1-1.26.71c-.91,0-1.28-.71-1.28-2v-1.23c0-1.31.37-2,1.28-2a2.07,2.07,0,0,1,1.18.56v-2.13h1.18v6.74Zm-.09-3.93a.93.93,0,0,0-.71-.36c-.32,0-.58.2-.58,1.21v1.09c0,1,.26,1.21.58,1.21a.93.93,0,0,0,.71-.36Z"/><path d="M120.73,202.44v-1.07h1.18v1.07Zm1.18.87v5.08h-1.18v-5.08Z"/><path d="M123.07,204.8a1.68,1.68,0,0,1,1.88-1.58c1.25,0,1.73.64,1.73,1.54V208a1.41,1.41,0,0,0,.07.41h-1.18c0-.13,0-.29-.08-.49a2,2,0,0,1-1.41.59,1.07,1.07,0,0,1-1.16-1.22c0-1.17,1.12-1.68,2.58-2.12v-.37a.55.55,0,0,0-.6-.61.63.63,0,0,0-.66.63Zm2.43,1.11c-.7.24-1.41.63-1.41,1.17a.49.49,0,0,0,.53.53,1.23,1.23,0,0,0,.88-.47Z"/><path d="M130.34,204.8a1.68,1.68,0,0,1,1.88-1.58c1.25,0,1.73.64,1.73,1.54V208a1.41,1.41,0,0,0,.07.41h-1.18c0-.13-.05-.29-.09-.49a2,2,0,0,1-1.4.59,1.07,1.07,0,0,1-1.16-1.22c0-1.17,1.12-1.68,2.58-2.12v-.37a.55.55,0,0,0-.6-.61.63.63,0,0,0-.66.63Zm2.43,1.11c-.7.24-1.41.63-1.41,1.17a.49.49,0,0,0,.53.53,1.23,1.23,0,0,0,.88-.47Z"/><path d="M135.12,208.39v-5.08h1.14v.58a2.11,2.11,0,0,1,1.32-.67c.71,0,1.09.36,1.09,1.31v3.86h-1.18v-3.73c0-.34-.11-.56-.43-.56a1.39,1.39,0,0,0-.76.46v3.83Z"/><path d="M142.26,208.39v-.61h0a1.67,1.67,0,0,1-1.25.71c-.92,0-1.29-.71-1.29-2v-1.23c0-1.31.37-2,1.29-2a2.08,2.08,0,0,1,1.17.56v-2.13h1.18v6.74Zm-.1-3.93a.92.92,0,0,0-.71-.36c-.31,0-.58.2-.58,1.21v1.09c0,1,.27,1.21.58,1.21a.92.92,0,0,0,.71-.36Z"/><path d="M66.12,140.11h1.81c1.38,0,2.17.58,2.17,1.74a1.56,1.56,0,0,1-.83,1.4,1.69,1.69,0,0,1,1,1.66c0,1.34-.89,2-2.26,2H66.12Zm1.29,2.68h.44a.86.86,0,0,0,1-.8c0-.49-.29-.81-.9-.81h-.51Zm0,3H68a.92.92,0,0,0,1-1c0-.64-.44-1-1.12-1h-.44Z"/><path d="M71.29,146.86v-5.08h1.15v.67h0a1.26,1.26,0,0,1,1.21-.77V143a2.63,2.63,0,0,0-.62-.13.56.56,0,0,0-.58.56v3.48Z"/><path d="M74.29,143.26a1.7,1.7,0,0,1,1.89-1.58c1.25,0,1.73.64,1.73,1.54v3.23a1.4,1.4,0,0,0,.06.41H76.8c0-.13,0-.29-.09-.5a1.91,1.91,0,0,1-1.4.59,1.08,1.08,0,0,1-1.17-1.21c0-1.18,1.12-1.68,2.59-2.12v-.38a.54.54,0,0,0-.61-.6.63.63,0,0,0-.65.62Zm2.44,1.11c-.7.25-1.41.64-1.41,1.17a.49.49,0,0,0,.52.53,1.22,1.22,0,0,0,.89-.46Z"/><path d="M79.08,146.86v-5.08h1.14v.58a2.07,2.07,0,0,1,1.31-.68c.72,0,1.09.37,1.09,1.31v3.87H81.45v-3.74c0-.33-.11-.56-.43-.56a1.45,1.45,0,0,0-.77.46v3.84Z"/><path d="M86.21,146.86v-.62h0a1.68,1.68,0,0,1-1.26.71c-.91,0-1.28-.71-1.28-2V143.7c0-1.31.37-2,1.28-2a2.07,2.07,0,0,1,1.18.56v-2.13H87.3v6.75Zm-.09-3.93a.91.91,0,0,0-.71-.37c-.32,0-.58.21-.58,1.22v1.08c0,1,.26,1.21.58,1.21a.93.93,0,0,0,.71-.36Z"/><path d="M91.11,146.86v-6.75H92.4v6.75Z"/><path d="M93.62,146.86v-5.08h1.13v.58a2.1,2.1,0,0,1,1.32-.68c.72,0,1.09.37,1.09,1.31v3.87H96v-3.74c0-.33-.11-.56-.43-.56a1.42,1.42,0,0,0-.77.46v3.84Z"/><path d="M98.29,146.86v-5.08h1.14v.58a2.07,2.07,0,0,1,1.31-.68c.72,0,1.1.37,1.1,1.31v3.87h-1.18v-3.74c0-.33-.11-.56-.43-.56a1.45,1.45,0,0,0-.77.46v3.84Z"/><path d="M102.87,143.61a1.87,1.87,0,1,1,3.73,0V145a1.87,1.87,0,1,1-3.73,0Zm1.17,1.72c0,.39.28.59.69.59s.69-.2.69-.59v-2c0-.39-.28-.6-.69-.6s-.69.21-.69.6Z"/><path d="M109.13,145.05h0l.78-3.27h1.18l-1.39,5.08h-1.15l-1.39-5.08h1.18Z"/><path d="M111.67,143.26a1.68,1.68,0,0,1,1.88-1.58c1.26,0,1.73.64,1.73,1.54v3.23a1.41,1.41,0,0,0,.07.41h-1.18c0-.13,0-.29-.08-.5a1.94,1.94,0,0,1-1.4.59,1.08,1.08,0,0,1-1.17-1.21c0-1.18,1.12-1.68,2.59-2.12v-.38a.55.55,0,0,0-.61-.6.63.63,0,0,0-.66.62Zm2.44,1.11c-.7.25-1.41.64-1.41,1.17a.48.48,0,0,0,.52.53,1.24,1.24,0,0,0,.89-.46Z"/><path d="M116,143V142h.46v-1.38h1.18V142h.76V143h-.76v2.6c0,.25.22.37.53.37h.24v1a3.89,3.89,0,0,1-.68,0c-.76,0-1.27-.28-1.27-1v-3Z"/><path d="M119.2,140.9v-1.07h1.18v1.07Zm1.18.88v5.08H119.2v-5.08Z"/><path d="M121.55,143.61a1.87,1.87,0,1,1,3.74,0V145a1.87,1.87,0,1,1-3.74,0Zm1.18,1.72c0,.39.28.59.69.59s.69-.2.69-.59v-2c0-.39-.28-.6-.69-.6s-.69.21-.69.6Z"/><path d="M126.32,146.86v-5.08h1.14v.58a2.07,2.07,0,0,1,1.32-.68c.71,0,1.09.37,1.09,1.31v3.87h-1.18v-3.74c0-.33-.11-.56-.43-.56a1.39,1.39,0,0,0-.76.46v3.84Z"/><path d="M131.63,146.86h-.56v-1.33h1.32v1.33l-.59,1.38h-.65Z"/><path d="M67.29,155.37c0,.75.33.95.84.95s.84-.2.84-.95v-.45h1.29v.28c0,1.66-.87,2.26-2.13,2.26S66,156.86,66,155.2v-2.41c0-1.66.88-2.26,2.13-2.26s2.13.6,2.13,2.26v0H69v-.19c0-.74-.32-1-.84-1s-.84.21-.84,1Z"/><path d="M71.29,157.37v-5.08h1.15V153h0a1.27,1.27,0,0,1,1.21-.76v1.27a2.23,2.23,0,0,0-.62-.14.56.56,0,0,0-.58.56v3.48Z"/><path d="M75.49,155.11v.67a.65.65,0,0,0,.69.73.64.64,0,0,0,.69-.71h1.18a1.64,1.64,0,0,1-1.87,1.66,1.72,1.72,0,0,1-1.87-1.8V154a1.87,1.87,0,0,1,3.74-.08v1.19Zm1.38-1v-.28c0-.45-.21-.73-.69-.73s-.69.28-.69.73v.28Z"/><path d="M79,153.77a1.69,1.69,0,0,1,1.89-1.57c1.25,0,1.73.63,1.73,1.54V157a1.84,1.84,0,0,0,.06.41H81.47c0-.13,0-.29-.09-.5a1.91,1.91,0,0,1-1.4.59,1.07,1.07,0,0,1-1.16-1.21c0-1.18,1.12-1.68,2.58-2.12v-.38a.55.55,0,0,0-.61-.6.63.63,0,0,0-.65.62Zm2.44,1.11c-.7.25-1.41.64-1.41,1.17a.49.49,0,0,0,.52.53,1.22,1.22,0,0,0,.89-.46Z"/><path d="M83.24,153.47v-1h.47v-1.38h1.18v1.38h.75v1h-.75v2.59c0,.25.21.37.53.37h.23v1a4.92,4.92,0,0,1-.67,0c-.76,0-1.27-.28-1.27-1v-3Z"/><path d="M86.5,151.41v-1.06h1.17v1.06Zm1.17.88v5.08H86.5v-5.08Z"/><path d="M90.45,155.56h0l.77-3.27h1.18L91,157.37H89.88l-1.38-5.08h1.17Z"/><path d="M93.24,151.41v-1.06h1.18v1.06Zm1.18.88v5.08H93.24v-5.08Z"/><path d="M95.19,153.47v-1h.46v-1.38h1.18v1.38h.76v1h-.76v2.59c0,.25.21.37.53.37h.24v1a5.17,5.17,0,0,1-.68,0c-.76,0-1.27-.28-1.27-1v-3Z"/><path d="M98,158.12h.34a.85.85,0,0,0,.85-.67,4.25,4.25,0,0,0-.21-1.07l-1.18-4.1H99l.79,3.36h0l.74-3.36h1.19l-1.35,5.06c-.37,1.37-.84,1.81-2,1.81l-.37,0Z"/><path d="M102.74,157.37h-.57V156h1.33v1.33l-.59,1.38h-.65Z"/><path d="M107.18,153.77a1.69,1.69,0,0,1,1.89-1.57c1.25,0,1.73.63,1.73,1.54V157a1.84,1.84,0,0,0,.06.41h-1.17c0-.13,0-.29-.09-.5a1.91,1.91,0,0,1-1.4.59,1.08,1.08,0,0,1-1.17-1.21c0-1.18,1.12-1.68,2.59-2.12v-.38a.55.55,0,0,0-.61-.6.63.63,0,0,0-.65.62Zm2.44,1.11c-.7.25-1.41.64-1.41,1.17a.49.49,0,0,0,.52.53,1.22,1.22,0,0,0,.89-.46Z"/><path d="M112,157.37v-5.08h1.14v.58a2.06,2.06,0,0,1,1.31-.67c.72,0,1.1.36,1.1,1.3v3.87h-1.18v-3.74c0-.33-.11-.56-.43-.56s-.51.24-.77.46v3.84Z"/><path d="M119.1,157.37v-.62h0a1.68,1.68,0,0,1-1.26.71c-.91,0-1.28-.71-1.28-2v-1.23c0-1.31.37-2,1.28-2a2,2,0,0,1,1.18.56v-2.13h1.18v6.74Zm-.09-3.93a.91.91,0,0,0-.71-.37c-.32,0-.58.21-.58,1.22v1.08c0,1,.26,1.21.58,1.21a.93.93,0,0,0,.71-.36Z"/><path d="M66.12,167.88v-6.74h3.53v1.14H67.41v1.55h1.7V165h-1.7v1.77h2.33v1.14Z"/><path d="M70.37,162.8h1.25l.66,1.46L73,162.8h1.26l-1.29,2.47,1.37,2.61H73.05l-.77-1.64-.76,1.64H70.27l1.39-2.61Z"/><path d="M76,162.8v.62h0a1.67,1.67,0,0,1,1.25-.71c.92,0,1.29.71,1.29,2V166c0,1.3-.37,2-1.29,2a2.05,2.05,0,0,1-1.17-.56v2.26H74.92V162.8Zm.1,3.93a.93.93,0,0,0,.7.37c.32,0,.58-.21.58-1.22V164.8c0-1-.26-1.22-.58-1.22a.93.93,0,0,0-.7.37Z"/><path d="M80.67,165.62v.67a.65.65,0,0,0,.7.73.64.64,0,0,0,.69-.71h1.17A1.64,1.64,0,0,1,81.37,168a1.71,1.71,0,0,1-1.87-1.8v-1.66a1.87,1.87,0,0,1,3.73-.08v1.19Zm1.39-1v-.28a.7.7,0,1,0-1.39,0v.28Z"/><path d="M84.26,167.88V162.8h1.15v.67h0a1.27,1.27,0,0,1,1.21-.76V164a2.21,2.21,0,0,0-.62-.13.55.55,0,0,0-.58.56v3.47Z"/><path d="M87.52,161.92v-1.06H88.7v1.06Zm1.18.88v5.08H87.52V162.8Z"/><path d="M91.05,165.62v.67a.65.65,0,0,0,.7.73.64.64,0,0,0,.69-.71h1.17A1.64,1.64,0,0,1,91.75,168a1.71,1.71,0,0,1-1.87-1.8v-1.66a1.87,1.87,0,0,1,3.73-.08v1.19Zm1.39-1v-.28a.7.7,0,1,0-1.39,0v.28Z"/><path d="M94.64,167.88V162.8h1.14v.58a2.11,2.11,0,0,1,1.32-.67c.72,0,1.09.36,1.09,1.3v3.87H97v-3.74c0-.33-.12-.56-.43-.56s-.52.24-.77.46v3.84Z"/><path d="M101.78,164.56v-.23c0-.39-.28-.6-.69-.6s-.69.21-.69.6v2c0,.39.28.6.69.6s.69-.21.69-.6V166H103v0a1.87,1.87,0,1,1-3.74,0v-1.42a1.68,1.68,0,0,1,1.87-1.92,1.66,1.66,0,0,1,1.86,1.85Z"/><path d="M105.07,165.62v.67a.65.65,0,0,0,.69.73.64.64,0,0,0,.69-.71h1.18a1.64,1.64,0,0,1-1.87,1.66,1.72,1.72,0,0,1-1.87-1.8v-1.66a1.87,1.87,0,0,1,3.74-.08v1.19Zm1.38-1v-.28c0-.45-.21-.73-.69-.73a.64.64,0,0,0-.69.73v.28Z"/><path d="M12.16,122.5A1.68,1.68,0,0,1,14,120.92c1.25,0,1.73.64,1.73,1.54v3.22a1.41,1.41,0,0,0,.07.41H14.66c0-.13-.05-.29-.08-.49a2,2,0,0,1-1.41.59A1.07,1.07,0,0,1,12,125c0-1.17,1.12-1.68,2.58-2.12v-.37a.55.55,0,0,0-.6-.61.63.63,0,0,0-.66.63Zm2.43,1.11c-.7.24-1.41.64-1.41,1.17a.49.49,0,0,0,.53.53,1.23,1.23,0,0,0,.88-.47Z"/><path d="M16.94,126.09V121h1.14v.58a2.11,2.11,0,0,1,1.32-.67c.72,0,1.09.37,1.09,1.31v3.86H19.31v-3.73c0-.34-.11-.56-.43-.56a1.39,1.39,0,0,0-.76.46v3.83Z"/><path d="M24.08,126.09v-.61h0a1.67,1.67,0,0,1-1.25.71c-.92,0-1.29-.71-1.29-2v-1.23c0-1.31.37-2,1.29-2a2.08,2.08,0,0,1,1.17.56v-2.13h1.18v6.74Zm-.1-3.93a.92.92,0,0,0-.71-.36c-.31,0-.57.2-.57,1.21v1.09c0,1,.26,1.21.57,1.21A.92.92,0,0,0,24,125Z"/><path d="M12.36,136.61v-6.75h1.8l1.17,4.43h0l1.17-4.43h1.8v6.75h-1.1V131.3h0l-1.37,5.31h-1l-1.38-5.31h0v5.31Z"/><path d="M19.43,133a1.68,1.68,0,0,1,1.88-1.58c1.25,0,1.73.64,1.73,1.54v3.22a1.54,1.54,0,0,0,.07.42H21.93c0-.14-.05-.29-.09-.5a1.91,1.91,0,0,1-1.4.59,1.07,1.07,0,0,1-1.16-1.21c0-1.18,1.12-1.69,2.58-2.12V133a.54.54,0,0,0-.6-.6.63.63,0,0,0-.66.62Zm2.43,1.11c-.7.24-1.41.64-1.41,1.17a.49.49,0,0,0,.53.53,1.23,1.23,0,0,0,.88-.47Z"/><path d="M24.21,136.61v-5.08h1.15v.67h0a1.25,1.25,0,0,1,1.21-.77v1.27a2.71,2.71,0,0,0-.63-.13.55.55,0,0,0-.57.56v3.48Z"/><path d="M27.38,136.61v-6.75h1.17v3.64h0l1.25-2h1.32L30,133.24l1.27,3.37H30l-.86-2.39-.59.84v1.55Z"/><path d="M33.08,134.35V135a.65.65,0,0,0,.69.73.64.64,0,0,0,.69-.71h1.17a1.64,1.64,0,0,1-1.86,1.66,1.72,1.72,0,0,1-1.87-1.8v-1.67a1.87,1.87,0,0,1,3.73-.07v1.19Zm1.38-1v-.28a.69.69,0,1,0-1.38,0v.28Z"/><path d="M36.16,132.7v-.95h.47v-1.38H37.8v1.38h.76v.95H37.8v2.6c0,.25.22.37.54.37h.23v1a3.78,3.78,0,0,1-.67,0c-.77,0-1.27-.28-1.27-1v-3Z"/><path d="M39.41,130.65v-1.07h1.18v1.07Zm1.18.88v5.08H39.41v-5.08Z"/><path d="M41.86,136.61v-5.08H43v.57a2.11,2.11,0,0,1,1.32-.67c.72,0,1.09.37,1.09,1.31v3.87H44.23v-3.74c0-.34-.11-.56-.43-.56a1.39,1.39,0,0,0-.76.46v3.84Z"/><path d="M50.44,132.46a2.41,2.41,0,0,0-.37-.07,1.52,1.52,0,0,0-.4.11,4.25,4.25,0,0,1,.15.89c0,1.27-.54,2-1.7,2a1.69,1.69,0,0,1-.49-.06c-.06.09-.2.17-.2.3,0,.63,3-.35,3,1.49,0,.87-.9,1.28-2.26,1.28s-1.94-.36-1.94-.93c0-.38.43-.61.71-.79a.85.85,0,0,1-.49-.72c0-.4.42-.67.71-.85a1.84,1.84,0,0,1-.76-1.76c0-1.1.42-1.92,1.73-1.92a1.81,1.81,0,0,1,1.33.59,1.27,1.27,0,0,1,1-.59Zm-2.9,4.37c-.12.12-.24.22-.24.41s.38.37,1.07.37.89-.14.89-.4-.08-.24-.43-.27Zm.54-4.44c-.45,0-.61.3-.61,1.1,0,.63.2.95.56.95s.67-.19.67-1.07C48.7,132.71,48.49,132.39,48.08,132.39Z"/><path d="M12.29,105.07V98.33h3.36v1.14H13.57V101H15.2v1.14H13.57v2.91Z"/><path d="M20,100v5.08H18.83v-.58a2.08,2.08,0,0,1-1.32.67c-.72,0-1.09-.36-1.09-1.3V100h1.17v3.74c0,.33.11.56.43.56s.52-.24.77-.46V100Z"/><path d="M20.58,101.17v-1h.47V98.83h1.18v1.38H23v1h-.75v2.59c0,.26.21.38.53.38H23v1a5,5,0,0,1-.67,0c-.77,0-1.27-.28-1.27-1v-3Z"/><path d="M27.23,100v5.08H26.09v-.58a2,2,0,0,1-1.31.67c-.72,0-1.09-.36-1.09-1.3V100h1.17v3.74c0,.33.11.56.43.56s.51-.24.77-.46V100Z"/><path d="M28.36,105.07V100h1.15v.67h0a1.27,1.27,0,0,1,1.22-.76v1.27a2.28,2.28,0,0,0-.63-.13.56.56,0,0,0-.58.56v3.47Z"/><path d="M32.55,102.81v.67a.65.65,0,0,0,.69.73.64.64,0,0,0,.69-.71h1.18a1.64,1.64,0,0,1-1.87,1.66,1.72,1.72,0,0,1-1.87-1.8V101.7a1.87,1.87,0,0,1,3.74-.08v1.19Zm1.38-1v-.28c0-.45-.21-.73-.69-.73a.64.64,0,0,0-.69.73v.28Z"/><path d="M38.64,101.82a1.68,1.68,0,0,1,1.87-1.92,1.68,1.68,0,0,1,1.87,1.92v1.42a1.67,1.67,0,0,1-1.87,1.92,1.68,1.68,0,0,1-1.87-1.92Zm1.18,1.72c0,.39.28.6.69.6s.69-.21.69-.6v-2c0-.39-.28-.6-.69-.6s-.69.21-.69.6Z"/><path d="M45.37,99.26H45a.38.38,0,0,0-.41.43v.52h.7v1h-.7v3.9H43.46v-3.9h-.54v-1h.54v-.48c0-1.18.49-1.5,1.35-1.5a4,4,0,0,1,.56.06Z"/><path d="M11.83,115.58l1.67-6.74h1.65l1.63,6.74H15.55l-.33-1.42H13.44l-.37,1.42ZM13.67,113H15l-.63-2.72h0Z"/><path d="M19.93,115.58V115h0a1.68,1.68,0,0,1-1.25.71c-.92,0-1.29-.71-1.29-2v-1.23c0-1.31.37-2,1.29-2a2.07,2.07,0,0,1,1.18.56v-2.13H21v6.74Zm-.09-3.93a1,1,0,0,0-.71-.36c-.32,0-.58.2-.58,1.21v1.08c0,1,.26,1.22.58,1.22a.93.93,0,0,0,.71-.37Z"/><path d="M23.64,113.77h0l.77-3.27h1.18l-1.38,5.08H23.07l-1.38-5.08h1.17Z"/><path d="M27.37,113.32V114a.65.65,0,0,0,.69.73.64.64,0,0,0,.69-.71h1.18a1.66,1.66,0,0,1-1.87,1.67,1.73,1.73,0,0,1-1.87-1.81v-1.66a1.72,1.72,0,0,1,1.87-1.8,1.72,1.72,0,0,1,1.87,1.73v1.18Zm1.38-.95v-.28a.64.64,0,0,0-.69-.73c-.48,0-.69.28-.69.73v.28Z"/><path d="M31,115.58V110.5H32.1v.67h0a1.27,1.27,0,0,1,1.22-.76v1.27a2.28,2.28,0,0,0-.63-.13.56.56,0,0,0-.58.56v3.47Z"/><path d="M33.56,111.68v-1H34v-1.39h1.18v1.39H36v1h-.75v2.59c0,.26.21.38.53.38H36v1a3.78,3.78,0,0,1-.67.05c-.77,0-1.27-.29-1.27-1v-3Z"/><path d="M36.81,109.62v-1.06H38v1.06Zm1.18.88v5.08H36.81V110.5Z"/><path d="M41.5,112.05a.87.87,0,0,0-.81-.69.46.46,0,0,0-.48.46c0,.78,2.3.8,2.3,2.31a1.51,1.51,0,0,1-1.69,1.55c-.71,0-1.34-.18-1.91-1.45l1.05-.29a.88.88,0,0,0,.86.78c.36,0,.57-.17.57-.45,0-1-2.3-.73-2.3-2.44a1.45,1.45,0,0,1,1.61-1.42,1.8,1.8,0,0,1,1.77,1.27Z"/><path d="M43.56,109.62v-1.06h1.18v1.06Zm1.18.88v5.08H43.56V110.5Z"/><path d="M46,115.58V110.5h1.14v.58a2.11,2.11,0,0,1,1.31-.67c.72,0,1.1.36,1.1,1.31v3.86H48.38v-3.73c0-.34-.11-.56-.43-.56a1.43,1.43,0,0,0-.76.45v3.84Z"/><path d="M54.58,111.44a2.33,2.33,0,0,0-.36-.08,2,2,0,0,0-.4.11,4.34,4.34,0,0,1,.15.9c0,1.27-.54,2-1.7,2a1.42,1.42,0,0,1-.49-.07c-.06.1-.2.18-.2.3,0,.64,3-.34,3,1.5,0,.86-.9,1.27-2.26,1.27s-1.94-.35-1.94-.92c0-.38.42-.62.71-.79a.84.84,0,0,1-.49-.72c0-.4.42-.67.71-.85a1.87,1.87,0,0,1-.77-1.77c0-1.09.42-1.91,1.74-1.91a1.78,1.78,0,0,1,1.33.59,1.23,1.23,0,0,1,1-.59Zm-2.89,4.37c-.12.12-.24.22-.24.41s.38.37,1.07.37.89-.14.89-.4-.08-.24-.43-.27Zm.54-4.45c-.45,0-.62.31-.62,1.1s.21,1,.56,1c.51,0,.68-.19.68-1.08C52.85,111.69,52.64,111.36,52.23,111.36Z"/><path class="cls-6" d="M174.27,126.38l9.19-5.72,3.79,6.09-1.48.92-2.69-4.34-2.19,1.37,2,3.14-1.48.92-2-3.14-2.57,1.6,2.78,4.47-1.48.91Z"/><path class="cls-6" d="M183.12,133.13l2.17-3.77,1,1.79-1.33,2,2.42-.1,1,1.74-4.35-.05-2.34,4.07-1-1.72,1.46-2.34-2.73.11-1-1.74Z"/><path class="cls-6" d="M189.17,136.18l.81,1.59-.65.33a2.68,2.68,0,0,1,1.68,1.39c.94,1.84-.22,3.61-2.39,4.7-1.71.87-3.93.74-4.83-1.05a2.69,2.69,0,0,1-.08-2.08l0,0-3.18,1.61-.84-1.66Zm-4.32,4.27a2.14,2.14,0,0,0,.06,1.59c.5,1,1.59,1.14,3.06.4s2-1.72,1.49-2.71c-.36-.71-.83-.76-1.27-1Z"/><path class="cls-6" d="M189.7,146.92c-1.46.7-1.73,1.62-1.37,2.41a2,2,0,0,0,1.57,1.19l-.2,1.58a3.53,3.53,0,0,1-2.81-2.31c-.84-1.84.06-3.66,2.31-4.69s4.22-.52,5.1,1.4-.24,3.61-1.94,4.39l-.7.31Zm2.4,2.2a1.51,1.51,0,1,0-1.25-2.72Z"/><path class="cls-6" d="M188.89,154l7.22-3,.64,1.58-1.23.51v0a2.31,2.31,0,0,1,2.21,1.46l-1.82.75a1.38,1.38,0,0,0-.12-.31,2.21,2.21,0,0,0-1.82-1.14l-4.39,1.8Z"/><path class="cls-6" d="M191.57,160.62l-.67-1.73,7.27-2.81.67,1.73Zm8-5.06,1.62-.63.67,1.74-1.62.63Z"/><path class="cls-6" d="M196.16,162.67c-1.52.55-1.88,1.44-1.6,2.26a2.09,2.09,0,0,0,1.44,1.35l-.36,1.55a3.56,3.56,0,0,1-2.56-2.59c-.65-1.91.43-3.63,2.77-4.43s4.24-.1,4.93,1.91-.6,3.56-2.37,4.16l-.73.25Zm2.16,2.43c1-.37,1.43-1.11,1.14-2a1.51,1.51,0,0,0-2.1-.86Z"/><path class="cls-6" d="M194.77,169.71l7.47-2.22.49,1.64-.8.24a4.34,4.34,0,0,1,1.63,2c.44,1.49-.32,2.5-1.85,3l-5.12,1.52-.53-1.78,4.86-1.44c1-.3,1.23-.71,1.05-1.32a2.39,2.39,0,0,0-1.28-1.43l-5.39,1.6Z"/><path class="cls-6" d="M203.27,180.6a1.59,1.59,0,0,0,.77-1.78c-.25-1-1.16-1.28-2.85-.85s-2.35,1.1-2.08,2.17a1.9,1.9,0,0,0,1.61,1.29L200.3,183a3.19,3.19,0,0,1-2.66-2.54c-.52-2,.7-3.68,3.1-4.28s4.23.23,4.76,2.29a3.08,3.08,0,0,1-1.27,3.49Z"/><path class="cls-6" d="M202.74,185.45c-1.58.37-2.05,1.2-1.87,2.05a2.07,2.07,0,0,0,1.27,1.51l-.54,1.5a3.55,3.55,0,0,1-2.23-2.87c-.42-2,.85-3.56,3.28-4.07s4.22.41,4.66,2.48-1,3.46-2.85,3.85l-.74.16Zm1.85,2.68c1-.26,1.55-.95,1.37-1.83s-.93-1.3-2-1.11Z"/><path class="cls-6" d="M159,106.53l.43-.55a4,4,0,0,1-2.24-1.25,2,2,0,0,1,.13-3c1.32-1.18,3-.73,5.26,1.28l.49-.43a1,1,0,0,0-.07-1.48,2,2,0,0,0-1.85-.63l-.12-1.5a3.5,3.5,0,0,1,3,1.21c1.37,1.6,1.4,2.78-.34,4.34L161,107a3.32,3.32,0,0,0-.73.87Zm2.65-2.64c-1-.77-2.11-1.62-2.92-.89a.85.85,0,0,0-.08,1.29,3.25,3.25,0,0,0,1.75.72Z"/><path class="cls-6" d="M161.34,109.22l6-5,1.09,1.32-.65.53a4.41,4.41,0,0,1,2.29,1.23c1,1.21.67,2.44-.56,3.44l-4.13,3.39-1.18-1.44,3.92-3.21c.82-.67.86-1.13.46-1.62a2.33,2.33,0,0,0-1.74-.82l-4.35,3.57Z"/><path class="cls-6" d="M170.5,120.82l-.94-1.26.62-.58a2.87,2.87,0,0,1-2.06-1.1c-1.24-1.66-.4-3.59,1.55-5,1.54-1.15,3.74-1.41,4.94.21a2.63,2.63,0,0,1,.43,2l0,0,3-2.24,1.11,1.49Zm3.53-4.95a2.18,2.18,0,0,0-.33-1.55c-.67-.89-1.77-.86-3.09.13s-1.66,2-1,2.92a2,2,0,0,0,1.41.74Z"/><path class="cls-6" d="M61.53,32.54l3.79,1.32c2,.72,3.12,1.86,2.6,3.72a2.43,2.43,0,0,1-2.37,1.78,2.54,2.54,0,0,1,.83,3.33c-.55,1.59-2,2.3-4.66,1.39L58,42.76Zm-1.07,9.32,2,.68c1.13.4,1.8.06,2.14-.92s0-1.66-1.1-2l-2-.68Zm1.6-4.56L64,38a1.33,1.33,0,1,0,.87-2.49l-1.95-.68Z"/><path class="cls-6" d="M67,46.05l2.76-7.3,1.6.6-.47,1.25h0A2.3,2.3,0,0,1,73.52,40l-.7,1.84a1.07,1.07,0,0,0-.3-.13,2.22,2.22,0,0,0-2.07.56L68.77,46.7Z"/><path class="cls-6" d="M75.52,49.35l.14-.67a4,4,0,0,1-2.56-.14,2,2,0,0,1-1.19-2.71c.66-1.64,2.35-2,5.29-1.17l.25-.61c.22-.55-.1-1-.71-1.29a2,2,0,0,0-1.95.25L74,41.72a3.49,3.49,0,0,1,3.23-.24c1.93.83,2.47,1.88,1.6,4.05l-1.38,3.4A3.79,3.79,0,0,0,77.2,50Zm1.21-3.53c-1.24-.25-2.6-.52-3,.5a.84.84,0,0,0,.49,1.18,3.23,3.23,0,0,0,1.9-.12Z"/><path class="cls-6" d="M78.69,50.65l3.12-7.15,1.57.69L83,45a4.35,4.35,0,0,1,2.6,0c1.43.63,1.71,1.86,1.07,3.32l-2.14,4.89-1.7-.74,2-4.65c.42-1,.25-1.4-.33-1.65a2.39,2.39,0,0,0-1.92.06L80.39,51.4Z"/><path class="cls-6" d="M92.21,56.79l-1.43-.68.28-.8a2.82,2.82,0,0,1-2.33,0c-1.88-.88-2-3-1-5.18.82-1.74,2.64-3,4.46-2.14a2.72,2.72,0,0,1,1.34,1.6h0l1.61-3.39,1.68.8Zm.79-6a2.13,2.13,0,0,0-1-1.22c-1-.47-2,.07-2.66,1.56s-.52,2.58.48,3a2,2,0,0,0,1.6,0Z"/><path class="cls-6" d="M94.92,58.21l-.81-.41,1-1.9,1.85.93-1,1.9-1.87,1.58-.87-.44Z"/><path class="cls-6" d="M110.75,58a2,2,0,0,0-.94-2.32c-1.2-.68-2.57,0-3.81,2.24s-1.26,3.69.1,4.45c.81.46,1.47.45,2.63-.35l1.43,1.38a4,4,0,0,1-4.91.49c-2.4-1.35-2.8-3.9-1.06-7s4.12-4.07,6.52-2.72a3.48,3.48,0,0,1,1.9,4.34Z"/><path class="cls-6" d="M109.83,66.3l4-6.68,1.46.89-.69,1.14,0,0a2.28,2.28,0,0,1,2.64-.14l-1,1.68A3.27,3.27,0,0,0,116,63a2.24,2.24,0,0,0-2.14.18l-2.45,4.06Z"/><path class="cls-6" d="M117.21,66.65c-.84,1.39-.58,2.3.16,2.77a2.08,2.08,0,0,0,2,.16L120,71a3.52,3.52,0,0,1-3.61-.42c-1.71-1.09-1.93-3.1-.6-5.19s3.25-2.73,5-1.59,1.76,3.15.76,4.73l-.42.65Zm3.21.56a1.51,1.51,0,1,0-2.53-1.62Z"/><path class="cls-6" d="M123.75,75.32l.29-.62a4.1,4.1,0,0,1-2.47-.7,2,2,0,0,1-.58-2.9c1-1.46,2.72-1.41,5.42,0l.37-.54a1,1,0,0,0-.41-1.41,2,2,0,0,0-2-.18l-.47-1.43a3.51,3.51,0,0,1,3.21.47c1.71,1.22,2,2.36.69,4.29l-2.08,3a3.61,3.61,0,0,0-.51,1Zm2-3.19c-1.17-.51-2.44-1.07-3.06-.16a.85.85,0,0,0,.23,1.26,3.24,3.24,0,0,0,1.88.29Z"/><path class="cls-6" d="M131.6,71.26l1.53-2.07,1.5,1.1-1.53,2.08,1.23.91-.89,1.2-1.23-.91-2.62,3.55c-.24.34-.15.56.23.84a4.64,4.64,0,0,0,.77.39l-.9,1.23a13.3,13.3,0,0,1-1.26-.78,1.64,1.64,0,0,1-.47-2.59l2.75-3.74-.87-.64.89-1.21Z"/><path class="cls-6" d="M132.35,81.52l-1.47-1.14,4.76-6.18,1.47,1.14Zm4.17-8.46,1.06-1.38,1.47,1.14L138,74.2Z"/><path class="cls-6" d="M138.24,76.33l1.45,1.17-2.31,4.92,0,0,4.34-3.29,1.45,1.17L136.55,85,135,83.77Z"/><path class="cls-6" d="M140.74,88.38l-1.41-1.21,5.08-5.93,1.41,1.21Zm4.6-8.23,1.14-1.32L147.89,80l-1.13,1.32Z"/><path class="cls-6" d="M147.69,84.22l1.73-1.92,1.38,1.24-1.72,1.92,1.14,1-1,1.12-1.13-1-3,3.28c-.28.31-.21.54.14.85a4,4,0,0,0,.74.46l-1,1.14a12.86,12.86,0,0,1-1.17-.89,1.65,1.65,0,0,1-.23-2.63l3.11-3.45-.8-.73,1-1.11Z"/><path class="cls-6" d="M144.62,93.53a3.64,3.64,0,0,0,.52.58,1.21,1.21,0,0,0,1.32.4,2.2,2.2,0,0,0,.85-.47,3.91,3.91,0,0,0,.46-.84l3-6.27,1.36,1.28-2.35,4.38,0,0L154.12,90l1.35,1.28-7.15,4c-2.13,1.06-3,1-4.14,0a5.07,5.07,0,0,1-.61-.66Z"/><path class="cls-6" d="M150.89,97.78l-.64-.63,1.5-1.51,1.47,1.45-1.5,1.52-2.26.92-.69-.69Z"/></g></g></g></g></svg>
