<svg xmlns="http://www.w3.org/2000/svg" viewBox="0 0 242.56 242.56"><defs><style>.cls-1{fill:#faa326;}.cls-1,.cls-2{stroke:#fff;stroke-miterlimit:10;}.cls-2{fill:#fff;}</style></defs><title>Q3</title><g id="Layer_2" data-name="Layer 2"><g id="Layer_1-2" data-name="Layer 1"><g id="Layer_3" data-name="Layer 3"><g id="BOTTOM_RIGHT" data-name="BOTTOM RIGHT"><path class="cls-1" d="M85.93.5c0,.2,0,.39,0,.59A84.86,84.86,0,0,1,1.09,86l-.59,0V242.06C133.91,242.06,242.06,133.91,242.06.5Z"/><path class="cls-2" d="M85.93.5c0,.2,0,.39,0,.59A84.86,84.86,0,0,1,1.09,86l-.59,0v99.54a185,185,0,0,0,185-185Z"/><path class="cls-1" d="M43.42,74.63A84.45,84.45,0,0,1,1.2,86v90.56c32.19,0,59.63-7.35,87.51-23.45Z"/><path class="cls-1" d="M74.52,43.61A85.3,85.3,0,0,1,43.61,74.52L88.9,153c27.87-16.09,48-36.18,64-64Z"/><path class="cls-1" d="M86,1.2A84.45,84.45,0,0,1,74.63,43.42l78.43,45.29c16.1-27.88,23.45-55.32,23.45-87.51Z"/></g></g></g></g></svg>