<svg xmlns="http://www.w3.org/2000/svg" xmlns:xlink="http://www.w3.org/1999/xlink" viewBox="0 0 242.56 242.56"><defs><style>.cls-1,.cls-2,.cls-3,.cls-4,.cls-5{stroke:#fff;stroke-miterlimit:10;}.cls-1{fill:url(#New_Gradient_Swatch_5);}.cls-2,.cls-6{fill:#fff;}.cls-3{fill:url(#linear-gradient);}.cls-4{fill:url(#linear-gradient-2);}.cls-5{fill:url(#linear-gradient-3);}</style><linearGradient id="New_Gradient_Swatch_5" x1="0.5" y1="121.28" x2="242.06" y2="121.28" gradientUnits="userSpaceOnUse"><stop offset="0" stop-color="#7a6f76"/><stop offset="0.05" stop-color="#7c737b"/><stop offset="0.47" stop-color="#8d96a3"/><stop offset="0.8" stop-color="#98abbb"/><stop offset="1" stop-color="#9cb3c4"/></linearGradient><linearGradient id="linear-gradient" x1="67.51" y1="163.5" x2="-6.5" y2="101.39" gradientUnits="userSpaceOnUse"><stop offset="0" stop-color="#c89a70"/><stop offset="0.11" stop-color="#cea57f"/><stop offset="0.72" stop-color="#efe1d5"/><stop offset="1" stop-color="#fcf9f7"/></linearGradient><linearGradient id="linear-gradient-2" x1="148.54" y1="122.61" x2="39.28" y2="82.84" gradientUnits="userSpaceOnUse"><stop offset="0.01" stop-color="#c28d5d"/><stop offset="0.4" stop-color="#dcbea2"/><stop offset="0.81" stop-color="#f5ede5"/><stop offset="1" stop-color="#fff"/></linearGradient><linearGradient id="linear-gradient-3" x1="171.21" y1="47.29" x2="81.11" y2="14.5" gradientUnits="userSpaceOnUse"><stop offset="0" stop-color="#c69568"/><stop offset="0.36" stop-color="#dcbea2"/><stop offset="0.79" stop-color="#f5ede5"/><stop offset="1" stop-color="#fff"/></linearGradient></defs><title>Q3</title><g id="Layer_2" data-name="Layer 2"><g id="Layer_1-2" data-name="Layer 1"><g id="Layer_3" data-name="Layer 3"><g id="BOTTOM_RIGHT" data-name="BOTTOM RIGHT"><path class="cls-1" d="M85.93.5c0,.2,0,.39,0,.59A84.86,84.86,0,0,1,1.09,86l-.59,0V242.06C133.91,242.06,242.06,133.91,242.06.5Z"/><path class="cls-2" d="M85.93.5c0,.2,0,.39,0,.59A84.86,84.86,0,0,1,1.09,86l-.59,0v99.54a185,185,0,0,0,185-185Z"/><path class="cls-3" d="M43.42,74.63A84.45,84.45,0,0,1,1.2,86v90.56c32.19,0,59.63-7.35,87.51-23.45Z"/><path class="cls-4" d="M74.52,43.61A85.3,85.3,0,0,1,43.61,74.52L88.9,153c27.87-16.09,48-36.18,64-64Z"/><path class="cls-5" d="M86,1.2A84.45,84.45,0,0,1,74.63,43.42l78.43,45.29c16.1-27.88,23.45-55.32,23.45-87.51Z"/><path d="M67.29,78.69h1.79c1.47,0,2.29.64,2.35,2.34V83.1c-.06,1.7-.88,2.33-2.35,2.33H67.29Zm1.28,5.6H69c.71,0,1.12-.33,1.12-1.34V81.17c0-1-.31-1.34-1.12-1.34h-.45Z"/><path d="M72.35,81.84a1.69,1.69,0,0,1,1.89-1.58c1.25,0,1.72.64,1.72,1.54V85a1.41,1.41,0,0,0,.07.41H74.85c0-.13,0-.29-.08-.49a2,2,0,0,1-1.4.59,1.08,1.08,0,0,1-1.17-1.22c0-1.17,1.12-1.68,2.59-2.12v-.37a.55.55,0,0,0-.61-.61.63.63,0,0,0-.65.63ZM74.79,83c-.7.24-1.41.63-1.41,1.17a.49.49,0,0,0,.52.53,1.25,1.25,0,0,0,.89-.47Z"/><path d="M76.63,81.53v-1h.47V79.2h1.17v1.38H79v1h-.76v2.6c0,.25.22.37.53.37H79v1a3.85,3.85,0,0,1-.67,0c-.77,0-1.27-.28-1.27-1v-3Z"/><path d="M79.62,81.84a1.69,1.69,0,0,1,1.89-1.58c1.25,0,1.72.64,1.72,1.54V85a1.41,1.41,0,0,0,.07.41H82.12c0-.13,0-.29-.08-.49a2,2,0,0,1-1.4.59,1.08,1.08,0,0,1-1.17-1.22c0-1.17,1.12-1.68,2.59-2.12v-.37a.55.55,0,0,0-.61-.61.63.63,0,0,0-.65.63ZM82.06,83c-.7.24-1.41.63-1.41,1.17a.49.49,0,0,0,.52.53,1.25,1.25,0,0,0,.89-.47Z"/><path d="M85,85.43h-.56V84.11H85.8v1.32l-.58,1.39h-.66Z"/><path d="M89.16,85.43l1.67-6.74h1.65l1.63,6.74H92.88L92.55,84H90.77l-.37,1.42ZM91,82.88h1.28l-.63-2.73h0Z"/><path d="M94.79,85.43V80.35h1.14v.58a2.11,2.11,0,0,1,1.32-.67c.72,0,1.09.36,1.09,1.31v3.86H97.17V81.7c0-.34-.12-.56-.43-.56a1.38,1.38,0,0,0-.77.46v3.83Z"/><path d="M99.35,81.84a1.7,1.7,0,0,1,1.89-1.58c1.25,0,1.73.64,1.73,1.54V85a1.84,1.84,0,0,0,.06.41h-1.17c0-.13,0-.29-.09-.49a2,2,0,0,1-1.4.59,1.08,1.08,0,0,1-1.17-1.22c0-1.17,1.12-1.68,2.59-2.12v-.37a.55.55,0,0,0-.61-.61.63.63,0,0,0-.65.63ZM101.79,83c-.7.24-1.41.63-1.41,1.17a.49.49,0,0,0,.52.53,1.24,1.24,0,0,0,.89-.47Z"/><path d="M104.29,78.69h1.17v6.74h-1.17Z"/><path d="M106.47,86.18a2.06,2.06,0,0,0,.35,0,.87.87,0,0,0,.85-.67,4,4,0,0,0-.22-1.08l-1.17-4.1h1.19l.8,3.37h0l.73-3.37h1.2l-1.36,5.07c-.36,1.37-.84,1.81-2,1.81l-.38,0Z"/><path d="M110.38,81.53v-1h.47V79.2H112v1.38h.76v1H112v2.6c0,.25.22.37.53.37h.24v1a3.85,3.85,0,0,1-.67,0c-.77,0-1.27-.28-1.27-1v-3Z"/><path d="M113.63,79.48V78.41h1.18v1.07Zm1.18.87v5.08h-1.18V80.35Z"/><path d="M118.54,82.11v-.23c0-.39-.28-.59-.69-.59s-.69.2-.69.59v2c0,.39.28.6.69.6s.69-.21.69-.6v-.32h1.18v0a1.87,1.87,0,1,1-3.73,0V82.18a1.86,1.86,0,1,1,3.72-.07Z"/><path d="M123,81.9a.88.88,0,0,0-.81-.69.46.46,0,0,0-.48.46c0,.79,2.3.8,2.3,2.32a1.5,1.5,0,0,1-1.69,1.54c-.71,0-1.34-.18-1.91-1.45l1-.29a.86.86,0,0,0,.86.78c.36,0,.57-.16.57-.44,0-1-2.3-.74-2.3-2.45a1.45,1.45,0,0,1,1.61-1.42A1.81,1.81,0,0,1,124,81.53Z"/><path d="M125.53,85.43H125V84.11h1.33v1.32l-.59,1.39h-.65Z"/><path d="M67.15,92.35A1.7,1.7,0,0,1,69,90.77c1.25,0,1.73.64,1.73,1.54v3.22a2,2,0,0,0,.06.42H69.66c0-.14,0-.29-.09-.5a1.91,1.91,0,0,1-1.4.59A1.08,1.08,0,0,1,67,94.83c0-1.18,1.12-1.69,2.59-2.12v-.38a.55.55,0,0,0-.61-.61.64.64,0,0,0-.65.63Zm2.44,1.11c-.7.24-1.41.64-1.41,1.17a.49.49,0,0,0,.52.53,1.24,1.24,0,0,0,.89-.47Z"/><path d="M71.94,96V90.87h1.14v.57a2.11,2.11,0,0,1,1.31-.67c.72,0,1.1.37,1.1,1.31V96H74.31V92.21c0-.34-.11-.56-.43-.56a1.39,1.39,0,0,0-.76.46V96Z"/><path d="M79.08,96v-.62h0a1.67,1.67,0,0,1-1.25.71c-.92,0-1.29-.71-1.29-2V92.79c0-1.31.37-2,1.29-2a2.08,2.08,0,0,1,1.17.56V89.2h1.18V96ZM79,92a.93.93,0,0,0-.71-.36c-.31,0-.58.21-.58,1.21V94c0,1,.27,1.21.58,1.21A.93.93,0,0,0,79,94.8Z"/><path d="M87.8,89.2v1.14H86.3V96H85V90.34h-1.5V89.2Z"/><path d="M89.13,93.69v.67a.65.65,0,0,0,.69.73.64.64,0,0,0,.69-.71h1.18A1.65,1.65,0,0,1,89.82,96,1.72,1.72,0,0,1,88,94.24V92.57a1.87,1.87,0,0,1,3.74-.07v1.19Zm1.38-1v-.28c0-.45-.21-.73-.69-.73s-.69.28-.69.73v.28Z"/><path d="M95.18,92.62V92.4c0-.4-.28-.6-.69-.6s-.69.2-.69.6v2c0,.4.28.6.69.6s.69-.2.69-.6V94.1h1.18v0a1.87,1.87,0,1,1-3.74,0V92.7a1.68,1.68,0,0,1,1.87-1.93,1.66,1.66,0,0,1,1.86,1.85Z"/><path d="M97.39,96V89.2h1.18v2.24a1.93,1.93,0,0,1,1.28-.67c.72,0,1.09.37,1.09,1.31V96H99.76V92.21c0-.34-.11-.56-.43-.56a1.39,1.39,0,0,0-.76.46V96Z"/><path d="M102.06,96V90.87h1.14v.57a2.11,2.11,0,0,1,1.32-.67c.72,0,1.09.37,1.09,1.31V96h-1.18V92.21c0-.34-.11-.56-.43-.56a1.39,1.39,0,0,0-.76.46V96Z"/><path d="M106.64,92.7a1.87,1.87,0,1,1,3.74,0v1.42a1.87,1.87,0,1,1-3.74,0Zm1.18,1.71c0,.4.28.6.69.6s.69-.2.69-.6v-2c0-.4-.28-.6-.69-.6s-.69.2-.69.6Z"/><path d="M111.56,89.2h1.17V96h-1.17Z"/><path d="M113.91,92.7a1.87,1.87,0,1,1,3.74,0v1.42a1.87,1.87,0,1,1-3.74,0Zm1.18,1.71c0,.4.28.6.69.6s.69-.2.69-.6v-2c0-.4-.28-.6-.69-.6s-.69.2-.69.6Z"/><path d="M122.58,91.8a2.21,2.21,0,0,0-.37-.08,1.59,1.59,0,0,0-.4.12,3.6,3.6,0,0,1,.15.89c0,1.27-.54,2-1.7,2a1.62,1.62,0,0,1-.48-.06c-.07.09-.21.17-.21.29,0,.64,3-.34,3,1.5,0,.87-.89,1.28-2.26,1.28s-1.94-.36-1.94-.93c0-.38.43-.61.71-.79a.85.85,0,0,1-.49-.72c0-.4.42-.67.71-.85a1.84,1.84,0,0,1-.76-1.76c0-1.1.42-1.92,1.74-1.92a1.81,1.81,0,0,1,1.32.59,1.27,1.27,0,0,1,1-.59Zm-2.9,4.37c-.12.12-.24.22-.24.41s.38.37,1.08.37.88-.14.88-.4-.07-.24-.43-.27Zm.55-4.45c-.45,0-.62.31-.62,1.11,0,.63.2,1,.56,1s.67-.19.67-1.07C120.84,92.05,120.64,91.72,120.23,91.72Z"/><path d="M123.09,96.69a1.88,1.88,0,0,0,.34,0,.86.86,0,0,0,.85-.67,4.31,4.31,0,0,0-.21-1.08l-1.18-4.09h1.19l.8,3.36h0l.74-3.36h1.19l-1.35,5.06c-.37,1.37-.84,1.81-2,1.81l-.37,0Z"/><path d="M95.73,29.87V23.12h1.8l1.17,4.43h0l1.16-4.43h1.81v6.75h-1.11V24.56h0l-1.38,5.31h-1l-1.37-5.31h0v5.31Z"/><path d="M104,27.61v.67a.65.65,0,0,0,.69.73.64.64,0,0,0,.69-.71h1.18A1.65,1.65,0,0,1,104.68,30a1.72,1.72,0,0,1-1.87-1.8V26.5a1.87,1.87,0,0,1,3.74-.08v1.19Zm1.38-1v-.28a.69.69,0,1,0-1.38,0v.28Z"/><path d="M107.46,26.27a1.7,1.7,0,0,1,1.89-1.58c1.25,0,1.73.64,1.73,1.54v3.23a1.84,1.84,0,0,0,.06.41H110c0-.13,0-.29-.09-.5a1.91,1.91,0,0,1-1.4.59,1.08,1.08,0,0,1-1.17-1.21c0-1.18,1.13-1.69,2.59-2.12v-.38a.54.54,0,0,0-.61-.6.63.63,0,0,0-.65.62Zm2.44,1.11c-.7.25-1.41.64-1.41,1.17a.49.49,0,0,0,.52.53,1.22,1.22,0,0,0,.89-.46Z"/><path d="M114.49,26.34a.87.87,0,0,0-.81-.69.46.46,0,0,0-.48.45c0,.79,2.3.81,2.3,2.32A1.5,1.5,0,0,1,113.81,30c-.71,0-1.35-.18-1.92-1.45l1.06-.29a.87.87,0,0,0,.86.79c.35,0,.57-.17.57-.45,0-1-2.3-.74-2.3-2.45a1.44,1.44,0,0,1,1.61-1.42A1.83,1.83,0,0,1,115.46,26Z"/><path d="M120,24.79v5.08h-1.14v-.58a2.13,2.13,0,0,1-1.32.67c-.72,0-1.09-.36-1.09-1.31V24.79h1.17v3.73c0,.34.11.56.43.56a1.38,1.38,0,0,0,.77-.46V24.79Z"/><path d="M121.07,29.87V24.79h1.15v.67h0a1.25,1.25,0,0,1,1.21-.77V26a2.71,2.71,0,0,0-.63-.13.55.55,0,0,0-.57.56v3.48Z"/><path d="M125.26,27.61v.67A.65.65,0,0,0,126,29a.64.64,0,0,0,.69-.71h1.18A1.64,1.64,0,0,1,126,30a1.71,1.71,0,0,1-1.86-1.8V26.5a1.87,1.87,0,0,1,3.73-.08v1.19Zm1.38-1v-.28a.69.69,0,1,0-1.38,0v.28Z"/><path d="M128.85,24.79H130v.58a2,2,0,0,1,1.26-.68,1,1,0,0,1,.9.77,1.79,1.79,0,0,1,1.25-.77c.71,0,1.07.43,1.07,1.35v3.83H133.3V26c0-.34-.13-.43-.31-.43a1.23,1.23,0,0,0-.74.46v3.84h-1.18V26c0-.34-.13-.43-.31-.43A1.11,1.11,0,0,0,130,26v3.84h-1.18Z"/><path d="M136.68,27.61v.67a.65.65,0,0,0,.69.73.64.64,0,0,0,.69-.71h1.18A1.65,1.65,0,0,1,137.37,30a1.72,1.72,0,0,1-1.87-1.8V26.5a1.87,1.87,0,0,1,3.74-.08v1.19Zm1.38-1v-.28a.69.69,0,1,0-1.38,0v.28Z"/><path d="M140.27,29.87V24.79h1.14v.58a2.07,2.07,0,0,1,1.32-.68c.71,0,1.09.37,1.09,1.31v3.87h-1.18V26.13c0-.34-.11-.56-.43-.56a1.39,1.39,0,0,0-.76.46v3.84Z"/><path d="M144.44,26V25h.46V23.63h1.18V25h.76V26h-.76v2.6c0,.25.21.37.53.37h.24v1a3.89,3.89,0,0,1-.68.05c-.76,0-1.27-.28-1.27-1V26Z"/><path d="M150,26.27a1.7,1.7,0,0,1,1.89-1.58c1.25,0,1.73.64,1.73,1.54v3.23a1.84,1.84,0,0,0,.06.41h-1.17c0-.13-.05-.29-.09-.5A1.91,1.91,0,0,1,151,30a1.08,1.08,0,0,1-1.17-1.21c0-1.18,1.13-1.69,2.59-2.12v-.38a.54.54,0,0,0-.61-.6.63.63,0,0,0-.65.62Zm2.44,1.11c-.7.25-1.41.64-1.41,1.17a.49.49,0,0,0,.52.53,1.22,1.22,0,0,0,.89-.46Z"/><path d="M154.81,29.87V24.79H156v.58a2.07,2.07,0,0,1,1.31-.68c.72,0,1.1.37,1.1,1.31v3.87h-1.18V26.13c0-.34-.11-.56-.43-.56A1.39,1.39,0,0,0,156,26v3.84Z"/><path d="M162,29.87v-.62h0a1.67,1.67,0,0,1-1.25.71c-.92,0-1.29-.71-1.29-2V26.71c0-1.31.37-2,1.29-2a2.08,2.08,0,0,1,1.17.56V23.12H163v6.75Zm-.1-3.94a.93.93,0,0,0-.71-.36c-.31,0-.58.21-.58,1.21v1.09c0,1,.27,1.21.58,1.21a.93.93,0,0,0,.71-.36Z"/><path d="M95.2,40.38l1.67-6.74h1.65l1.62,6.74H98.91L98.59,39H96.8l-.36,1.42ZM97,37.82h1.27l-.62-2.73h0Z"/><path d="M103.29,37.05v-.22c0-.39-.28-.6-.69-.6s-.69.21-.69.6v2c0,.39.28.59.69.59s.69-.2.69-.59v-.32h1.18v0a1.87,1.87,0,1,1-3.73,0V37.13a1.68,1.68,0,0,1,1.86-1.93,1.66,1.66,0,0,1,1.86,1.85Z"/><path d="M108,37.05v-.22c0-.39-.28-.6-.69-.6s-.7.21-.7.6v2c0,.39.29.59.7.59s.69-.2.69-.59v-.32h1.17v0a1.87,1.87,0,1,1-3.73,0V37.13a1.68,1.68,0,0,1,1.87-1.93,1.65,1.65,0,0,1,1.85,1.85Z"/><path d="M110.08,37.13a1.87,1.87,0,1,1,3.74,0v1.42a1.87,1.87,0,1,1-3.74,0Zm1.18,1.72c0,.39.28.59.69.59s.69-.2.69-.59v-2c0-.39-.28-.6-.69-.6s-.69.21-.69.6Z"/><path d="M118.39,35.3v5.08h-1.14V39.8a2.08,2.08,0,0,1-1.31.67c-.72,0-1.09-.36-1.09-1.31V35.3H116V39c0,.34.11.56.43.56a1.49,1.49,0,0,0,.77-.45V35.3Z"/><path d="M119.52,40.38V35.3h1.14v.58A2.07,2.07,0,0,1,122,35.2c.72,0,1.1.37,1.1,1.31v3.87h-1.18V36.64c0-.33-.11-.56-.43-.56s-.51.24-.77.46v3.84Z"/><path d="M123.68,36.47v-.95h.47V34.14h1.18v1.38h.75v.95h-.75v2.6c0,.25.21.37.53.37h.23v1a3.71,3.71,0,0,1-.67,0c-.76,0-1.27-.28-1.27-1v-3Z"/><path d="M126.67,36.78a1.7,1.7,0,0,1,1.89-1.58c1.25,0,1.73.64,1.73,1.55V40a1.84,1.84,0,0,0,.06.41h-1.17c0-.13-.05-.29-.09-.5a1.91,1.91,0,0,1-1.4.59,1.07,1.07,0,0,1-1.16-1.21c0-1.18,1.12-1.68,2.58-2.12v-.38a.55.55,0,0,0-.61-.6.63.63,0,0,0-.65.62Zm2.44,1.11c-.7.25-1.41.64-1.41,1.17a.49.49,0,0,0,.52.53,1.22,1.22,0,0,0,.89-.46Z"/><path d="M131.46,40.38V33.64h1.18v2.12a2.05,2.05,0,0,1,1.17-.56c.92,0,1.29.71,1.29,2v1.23c0,1.31-.37,2-1.29,2a1.67,1.67,0,0,1-1.25-.71h0v.62Zm1.18-1.15a.91.91,0,0,0,.7.36c.32,0,.58-.2.58-1.21V37.3c0-1-.26-1.22-.58-1.22a.9.9,0,0,0-.7.37Z"/><path d="M136.28,34.42V33.36h1.18v1.06Zm1.18.88v5.08h-1.18V35.3Z"/><path d="M138.88,33.64h1.17v6.74h-1.17Z"/><path d="M141.48,34.42V33.36h1.17v1.06Zm1.17.88v5.08h-1.17V35.3Z"/><path d="M143.42,36.47v-.95h.47V34.14h1.17v1.38h.76v.95h-.76v2.6c0,.25.22.37.53.37h.24v1a3.85,3.85,0,0,1-.67,0c-.77,0-1.27-.28-1.27-1v-3Z"/><path d="M146.26,41.13h.35a.86.86,0,0,0,.85-.67,4.32,4.32,0,0,0-.22-1.07l-1.18-4.1h1.2l.79,3.36h0l.74-3.36H150l-1.35,5.06c-.36,1.37-.84,1.81-2,1.81l-.37,0Z"/><path d="M12.43,135.58c-.21-.64-.49-.91-.94-.91a.66.66,0,0,0-.71.74c0,1,2.88,1.09,2.88,3.2a1.9,1.9,0,0,1-2.15,1.93,2.18,2.18,0,0,1-2.2-1.9l1.27-.27c.14.81.61,1.1,1,1.1a.76.76,0,0,0,.79-.8c0-1.27-2.88-1.29-2.88-3.17a1.78,1.78,0,0,1,2-1.89,2,2,0,0,1,2.07,1.63Z"/><path d="M15.85,138.18v.68a.64.64,0,0,0,.69.72.63.63,0,0,0,.69-.7H18.4a1.64,1.64,0,0,1-1.86,1.66,1.72,1.72,0,0,1-1.87-1.8v-1.67a1.72,1.72,0,0,1,1.87-1.8A1.71,1.71,0,0,1,18.4,137v1.18Zm1.38-1V137a.64.64,0,0,0-.69-.73c-.48,0-.69.28-.69.73v.28Z"/><path d="M19.58,133.7h1.18v6.74H19.58Z"/><path d="M24,134.64h-.33a.38.38,0,0,0-.41.43v.52H24v.95h-.71v3.9H22.08v-3.9h-.53v-.95h.53v-.49c0-1.17.49-1.49,1.35-1.49a3.82,3.82,0,0,1,.56.06Z"/><path d="M24.47,138.42v-1h2.3v1Z"/><path d="M30.79,140.44l-1.12-2.74h-.62v2.74H27.76V133.7h1.87c1.55,0,2.29.75,2.29,2a1.63,1.63,0,0,1-1,1.72l1.27,3Zm-1.74-3.81h.66a.93.93,0,0,0,0-1.86h-.66Z"/><path d="M34,138.18v.68a.64.64,0,0,0,.69.72.63.63,0,0,0,.69-.7h1.18a1.65,1.65,0,0,1-1.87,1.66,1.72,1.72,0,0,1-1.87-1.8v-1.67a1.87,1.87,0,0,1,3.74-.07v1.18Zm1.38-1V137c0-.45-.21-.73-.69-.73s-.69.28-.69.73v.28Z"/><path d="M41.51,136.3a2.33,2.33,0,0,0-.36-.08,1.87,1.87,0,0,0-.4.11,4.34,4.34,0,0,1,.15.9c0,1.27-.55,2-1.7,2a1.69,1.69,0,0,1-.49-.06c-.07.09-.21.17-.21.29,0,.64,3-.34,3,1.5,0,.87-.9,1.28-2.26,1.28s-2-.36-2-.93c0-.38.43-.61.71-.79a.84.84,0,0,1-.48-.72c0-.4.42-.67.71-.85a1.85,1.85,0,0,1-.77-1.76c0-1.1.42-1.92,1.74-1.92a1.79,1.79,0,0,1,1.32.59,1.27,1.27,0,0,1,1-.59Zm-2.89,4.37c-.12.12-.25.22-.25.41s.39.37,1.08.37.88-.14.88-.4-.07-.24-.42-.27Zm.54-4.45c-.45,0-.62.31-.62,1.11,0,.63.21.95.56.95.51,0,.67-.19.67-1.08C39.77,136.55,39.57,136.22,39.16,136.22Z"/><path d="M45.83,135.36v5.08H44.69v-.57a2.11,2.11,0,0,1-1.32.67c-.72,0-1.09-.37-1.09-1.31v-3.87h1.18v3.74c0,.34.11.56.43.56a1.39,1.39,0,0,0,.76-.46v-3.84Z"/><path d="M47.1,133.7h1.18v6.74H47.1Z"/><path d="M49.44,136.85a1.68,1.68,0,0,1,1.88-1.58c1.26,0,1.73.64,1.73,1.54V140a1.41,1.41,0,0,0,.07.41H51.94c0-.13,0-.28-.08-.49a2,2,0,0,1-1.4.59,1.08,1.08,0,0,1-1.17-1.22c0-1.17,1.12-1.68,2.58-2.12v-.37a.55.55,0,0,0-.6-.61.64.64,0,0,0-.66.63ZM51.87,138c-.7.24-1.41.64-1.41,1.17a.49.49,0,0,0,.53.53,1.23,1.23,0,0,0,.88-.47Z"/><path d="M53.72,136.54v-.95h.46v-1.38h1.18v1.38h.76v.95h-.76v2.6c0,.25.22.37.53.37h.24v1a3.89,3.89,0,0,1-.68,0c-.76,0-1.27-.28-1.27-1v-3Z"/><path d="M57,134.49v-1.07h1.18v1.07Zm1.18.87v5.08H57v-5.08Z"/><path d="M59.32,137.19a1.87,1.87,0,1,1,3.74,0v1.42a1.87,1.87,0,1,1-3.74,0Zm1.18,1.72c0,.39.28.6.69.6s.69-.21.69-.6v-2c0-.4-.28-.6-.69-.6s-.69.2-.69.6Z"/><path d="M64.09,140.44v-5.08h1.14v.58a2.11,2.11,0,0,1,1.31-.67c.72,0,1.1.36,1.1,1.31v3.86H66.46v-3.73c0-.34-.11-.56-.43-.56a1.39,1.39,0,0,0-.76.46v3.83Z"/><path d="M9.66,119.43v-6.75h1.86c1.59,0,2.36.75,2.36,2s-.77,2-2.36,2H11v2.71ZM11,115.65h.69a1,1,0,0,0,0-1.9H11Z"/><path d="M14.76,119.43v-5.08h1.15V115h0a1.26,1.26,0,0,1,1.21-.77v1.27a2.63,2.63,0,0,0-.62-.13.56.56,0,0,0-.58.56v3.48Z"/><path d="M18,113.47V112.4H19.2v1.07Zm1.18.88v5.08H18v-5.08Z"/><path d="M22,117.61h0l.78-3.26H24l-1.39,5.08H21.41L20,114.35H21.2Z"/><path d="M24.51,115.83a1.69,1.69,0,0,1,1.89-1.58c1.25,0,1.72.64,1.72,1.54V119a1.48,1.48,0,0,0,.07.42H27c0-.14-.05-.29-.08-.5a1.93,1.93,0,0,1-1.4.59,1.08,1.08,0,0,1-1.17-1.21c0-1.18,1.12-1.69,2.59-2.12v-.38a.54.54,0,0,0-.61-.6.62.62,0,0,0-.65.62ZM27,116.94c-.7.24-1.41.64-1.41,1.17a.48.48,0,0,0,.52.53,1.25,1.25,0,0,0,.89-.47Z"/><path d="M31.76,116.1v-.22c0-.39-.28-.6-.69-.6s-.69.21-.69.6v2c0,.4.28.6.69.6s.69-.2.69-.6v-.31h1.17v0a1.67,1.67,0,0,1-1.86,1.92,1.68,1.68,0,0,1-1.87-1.92v-1.42a1.68,1.68,0,0,1,1.87-1.93,1.66,1.66,0,0,1,1.86,1.85Z"/><path d="M33.7,120.17a2.06,2.06,0,0,0,.35,0,.87.87,0,0,0,.85-.67,4.32,4.32,0,0,0-.22-1.07l-1.17-4.1H34.7l.8,3.36h0l.74-3.36h1.2l-1.36,5.06c-.36,1.37-.84,1.81-2,1.81l-.38,0Z"/><path d="M38.41,119.43h-.56V118.1h1.33v1.33l-.59,1.38h-.65Z"/><path d="M9.13,129.93l1.67-6.74h1.65l1.63,6.74H12.84l-.32-1.42H10.73l-.36,1.42ZM11,127.37h1.28l-.63-2.72h0Z"/><path d="M17.23,129.93v-.61h0A1.7,1.7,0,0,1,16,130c-.92,0-1.29-.71-1.29-2v-1.23c0-1.31.37-2,1.29-2a2.05,2.05,0,0,1,1.17.56v-2.13h1.18v6.74Zm-.1-3.93a.92.92,0,0,0-.71-.36c-.31,0-.57.2-.57,1.21v1.08c0,1,.26,1.22.57,1.22a.9.9,0,0,0,.71-.37Z"/><path d="M20.94,128.12h0l.77-3.27h1.18l-1.38,5.08H20.37L19,124.85h1.17Z"/><path d="M23.49,126.68a1.68,1.68,0,0,1,1.87-1.92,1.67,1.67,0,0,1,1.86,1.92v1.42A1.68,1.68,0,0,1,25.36,130a1.68,1.68,0,0,1-1.87-1.93Zm1.18,1.72c0,.39.28.6.69.6s.69-.21.69-.6v-2c0-.39-.28-.59-.69-.59s-.69.2-.69.59Z"/><path d="M30.72,126.61v-.23c0-.39-.28-.59-.69-.59s-.69.2-.69.59v2c0,.39.28.6.69.6s.69-.21.69-.6v-.32H31.9v0A1.68,1.68,0,0,1,30,130a1.68,1.68,0,0,1-1.87-1.93v-1.42A1.68,1.68,0,0,1,30,124.76a1.66,1.66,0,0,1,1.86,1.85Z"/><path d="M32.81,126.34a1.7,1.7,0,0,1,1.89-1.58c1.25,0,1.73.63,1.73,1.54v3.22a1.84,1.84,0,0,0,.06.41H35.32c0-.13,0-.29-.09-.49a2,2,0,0,1-1.4.59,1.08,1.08,0,0,1-1.16-1.22c0-1.17,1.12-1.68,2.58-2.12v-.37a.55.55,0,0,0-.61-.61.63.63,0,0,0-.65.63Zm2.44,1.11c-.7.24-1.41.63-1.41,1.17a.49.49,0,0,0,.52.53,1.24,1.24,0,0,0,.89-.47Z"/><path d="M40.06,126.61v-.23c0-.39-.28-.59-.69-.59s-.69.2-.69.59v2c0,.39.28.6.69.6s.69-.21.69-.6v-.32h1.18v0A1.68,1.68,0,0,1,39.37,130a1.68,1.68,0,0,1-1.87-1.93v-1.42a1.68,1.68,0,0,1,1.87-1.92,1.66,1.66,0,0,1,1.86,1.85Z"/><path d="M42,130.68a1.88,1.88,0,0,0,.34,0,.86.86,0,0,0,.85-.67A4.31,4.31,0,0,0,43,129l-1.18-4.1H43l.79,3.36h0l.74-3.36h1.19l-1.35,5.06c-.36,1.38-.84,1.82-2,1.82l-.37,0Z"/><path d="M46.72,129.93h-.56v-1.32h1.32v1.32l-.58,1.38h-.66Z"/><path d="M51.17,126.34a1.68,1.68,0,0,1,1.88-1.58c1.25,0,1.73.63,1.73,1.54v3.22a1.41,1.41,0,0,0,.07.41H53.67c0-.13-.05-.29-.09-.49a2,2,0,0,1-1.4.59A1.08,1.08,0,0,1,51,128.81c0-1.17,1.12-1.68,2.58-2.12v-.37a.55.55,0,0,0-.6-.61.63.63,0,0,0-.66.63Zm2.43,1.11c-.7.24-1.41.63-1.41,1.17a.49.49,0,0,0,.53.53,1.23,1.23,0,0,0,.88-.47Z"/><path d="M56,129.93v-5.08h1.14v.58a2.11,2.11,0,0,1,1.32-.67c.71,0,1.09.36,1.09,1.31v3.86H58.32V126.2c0-.34-.11-.56-.43-.56a1.43,1.43,0,0,0-.76.45v3.84Z"/><path d="M63.09,129.93v-.61h0a1.7,1.7,0,0,1-1.25.71c-.92,0-1.29-.71-1.29-2v-1.23c0-1.31.37-2,1.29-2a2.08,2.08,0,0,1,1.17.56v-2.13h1.18v6.74ZM63,126a.92.92,0,0,0-.71-.36c-.31,0-.57.2-.57,1.21v1.08c0,1,.26,1.22.57,1.22a.9.9,0,0,0,.71-.37Z"/><path class="cls-6" d="M172.4,135.79l-8.73-6.4,1.72-2.35,7.33,2.79,0,0-4.86-6.17,1.74-2.37,8.73,6.4-1.06,1.45-6.87-5,0,0,5.43,7-.93,1.27-8.29-3.1v0l6.87,5Z"/><path class="cls-6" d="M177.16,122.82c1.38.85,2.3.58,2.77-.15a2.06,2.06,0,0,0,.15-2l1.44-.68a3.55,3.55,0,0,1-.43,3.61c-1.09,1.7-3.1,1.93-5.19.59s-2.72-3.25-1.58-5,3.15-1.75,4.73-.74l.65.41Zm.55-3.21a1.51,1.51,0,1,0-1.61,2.53Z"/><path class="cls-6" d="M185.55,116.06l-.64-.24a4.09,4.09,0,0,1-.54,2.51,2,2,0,0,1-2.86.75c-1.52-.9-1.58-2.62-.34-5.4l-.56-.34c-.52-.31-1.05-.07-1.39.5a2,2,0,0,0-.05,2l-1.4.56a3.49,3.49,0,0,1,.27-3.22c1.11-1.79,2.23-2.17,4.24-1l3.16,1.88a3.53,3.53,0,0,0,1,.45Zm-3.31-1.75c-.43,1.19-.91,2.5,0,3.06a.85.85,0,0,0,1.25-.31,3.23,3.23,0,0,0,.17-1.89Z"/><path class="cls-6" d="M184.1,107a2.14,2.14,0,0,0-1.43.87c-.34.63-.24,1.07.17,1.29,1.16.65,2.55-3,5-1.66,1.41.78,1.45,2.21.66,3.64a3.43,3.43,0,0,1-2.81,1.82l-.21-1.54a2.31,2.31,0,0,0,1.86-1,1,1,0,0,0-.24-1.4c-1.17-.65-2.63,3-5,1.69a2.36,2.36,0,0,1-.73-3.36,3.6,3.6,0,0,1,2.36-1.83Z"/><path class="cls-6" d="M186.22,98l7,3.43-.75,1.54-.75-.37a4.42,4.42,0,0,1-.17,2.59c-.68,1.4-1.93,1.62-3.36.93l-4.8-2.35.82-1.67,4.56,2.23c.94.46,1.38.31,1.66-.26a2.36,2.36,0,0,0,0-1.92l-5-2.48Z"/><path class="cls-6" d="M194.09,99.73,187,96.53l.7-1.56,1.22.55v0a2.31,2.31,0,0,1-.46-2.6l1.8.8a1.66,1.66,0,0,0-.15.3,2.25,2.25,0,0,0,.43,2.1L194.85,98Z"/><path class="cls-6" d="M193.28,92.53c1.51.59,2.37.16,2.7-.65a2.07,2.07,0,0,0-.2-2l1.29-.93a3.54,3.54,0,0,1,.23,3.63c-.77,1.87-2.71,2.45-5,1.52s-3.26-2.72-2.46-4.67,2.78-2.3,4.52-1.59l.71.29Zm0-3.25a1.51,1.51,0,1,0-1.13,2.77Z"/><path class="cls-6" d="M199,88.17l-7.35-2.59.56-1.6.79.28a3.11,3.11,0,0,1-.16-2.54,2.06,2.06,0,0,1,1.71-1.43,3.49,3.49,0,0,1-.18-2.91c.27-.76,1.09-1.65,2.84-1l5.29,1.86L201.86,80l-5.14-1.81a.87.87,0,0,0-1.26.55,2.82,2.82,0,0,0,.28,1.75L201,82.31l-.61,1.75-5.14-1.8a.86.86,0,0,0-1.26.54,2.81,2.81,0,0,0,.28,1.75l5.29,1.86Z"/><path class="cls-6" d="M200,74.13c1.56.42,2.37-.09,2.62-.92a2.11,2.11,0,0,0-.4-1.94l1.19-1a3.54,3.54,0,0,1,.6,3.58c-.58,2-2.45,2.72-4.82,2s-3.53-2.36-2.93-4.39,2.54-2.57,4.34-2l.73.22Zm-.36-3.24a1.5,1.5,0,0,0-2.06,1c-.26.86.19,1.58,1.21,1.92Z"/><path class="cls-6" d="M205.16,69.17l-7.55-2,.42-1.66.82.21a4.33,4.33,0,0,1-.36-2.57c.39-1.51,1.57-2,3.1-1.58L206.76,63l-.46,1.8-4.91-1.27c-1-.27-1.42,0-1.58.58a2.38,2.38,0,0,0,.37,1.89l5.44,1.41Z"/><path class="cls-6" d="M199.71,59.07l-2.52-.57.41-1.81,2.52.56.33-1.49,1.46.32-.33,1.5,4.3,1c.41.1.58-.08.68-.54a4.17,4.17,0,0,0,0-.86l1.49.33a11.92,11.92,0,0,1-.2,1.46,1.64,1.64,0,0,1-2.18,1.48l-4.53-1-.24,1.06-1.46-.33Z"/><path class="cls-6" d="M156,154.69l-.56-.39a4.16,4.16,0,0,1-1.12,2.31,2,2,0,0,1-3,0c-1.26-1.24-.91-2.92,1-5.33l-.47-.46a1,1,0,0,0-1.46.15,2,2,0,0,0-.52,1.89l-1.5.21a3.48,3.48,0,0,1,1-3.07c1.51-1.46,2.68-1.56,4.35.09l2.61,2.58a3.28,3.28,0,0,0,.9.69Zm-2.79-2.49c-.7,1.05-1.48,2.2-.7,3a.85.85,0,0,0,1.28,0,3.26,3.26,0,0,0,.62-1.8Z"/><path class="cls-6" d="M158.4,152.18l-5.77-5.25,1.15-1.26.62.56a4.4,4.4,0,0,1,.88-2.44c1.05-1.15,2.31-1,3.49.05l3.95,3.59-1.25,1.38-3.76-3.41c-.77-.71-1.24-.69-1.66-.22a2.32,2.32,0,0,0-.56,1.84l4.16,3.78Z"/><path class="cls-6" d="M168.28,141.11l-1,1.2-.7-.48a2.9,2.9,0,0,1-.62,2.25c-1.35,1.57-3.42,1.18-5.27-.4-1.46-1.25-2.19-3.34-.88-4.87a2.68,2.68,0,0,1,1.89-.87l0,0-2.85-2.44,1.21-1.41Zm-5.6-2.35a2.14,2.14,0,0,0-1.44.66c-.72.84-.45,1.91.8,3s2.35,1.18,3.07.34a1.93,1.93,0,0,0,.41-1.54Z"/><path class="cls-6" d="M88.89,189.1l.7,1.59L87,191.84l3.69,8.32L88.8,201l-3.69-8.32-2.59,1.15-.71-1.59Z"/><path class="cls-6" d="M93,195.13c.73,1.44,1.65,1.69,2.44,1.31a2.06,2.06,0,0,0,1.16-1.59l1.58.17a3.54,3.54,0,0,1-2.25,2.85c-1.82.89-3.66,0-4.73-2.2s-.62-4.21,1.28-5.13,3.61.16,4.42,1.84l.34.69Zm2.15-2.45a1.51,1.51,0,1,0-2.7,1.31Z"/><path class="cls-6" d="M101.51,188.86a1.58,1.58,0,0,0-1.9-.34c-.92.49-1,1.44-.17,3s1.63,2,2.6,1.51a1.9,1.9,0,0,0,.88-1.87l1.62,0a3.21,3.21,0,0,1-1.85,3.18c-1.87,1-3.74.19-4.89-2s-.76-4.18,1.11-5.16a3.07,3.07,0,0,1,3.69.41Z"/><path class="cls-6" d="M106.73,192.06l-5.38-9.4,1.62-.92,1.92,3.36a3.57,3.57,0,0,1,1.46-2c1.35-.78,2.51-.26,3.3,1.12l2.65,4.63-1.61.93-2.52-4.4c-.52-.92-1-1-1.52-.73a2.44,2.44,0,0,0-1.1,1.58l2.8,4.89Z"/><path class="cls-6" d="M114,187.88l-4.12-6.63,1.46-.9.44.71a4.35,4.35,0,0,1,1.52-2.1c1.32-.83,2.5-.36,3.34,1l2.81,4.53-1.58,1-2.67-4.3c-.56-.9-1-1-1.54-.67a2.4,2.4,0,0,0-1.05,1.62l3,4.78Z"/><path class="cls-6" d="M118.9,175.32c1.75-1.18,3.69-.59,5.07,1.46s1.2,4.08-.55,5.26-3.69.58-5.07-1.47S117.14,176.5,118.9,175.32Zm.84,1.24c-.86.58-.82,1.53.15,3s1.83,1.84,2.69,1.26.82-1.52-.15-3S120.59,176,119.74,176.56Z"/><path class="cls-6" d="M127.39,179.06l-6.26-8.84,1.51-1.07,6.27,8.83Z"/><path class="cls-6" d="M128.09,168.67c1.69-1.27,3.66-.77,5.14,1.21s1.4,4-.29,5.27-3.66.77-5.14-1.21S126.4,169.93,128.09,168.67Zm.9,1.2c-.83.62-.74,1.56.3,3s1.92,1.74,2.75,1.12.74-1.56-.3-3S129.82,169.25,129,169.87Z"/><path class="cls-6" d="M137.2,163a2.43,2.43,0,0,0-.82.89,2.3,2.3,0,0,1,1.2.81c.92,1.14.81,2.58-.7,3.81-.63.51-1.11.94-.83,1.29.79,1,3.7-3.58,5.67-1.16.7.87.58,2.51-1.36,4.07-1.63,1.32-3.1,1.7-3.87.75a1.37,1.37,0,0,1,.19-2l0,0c-.42.05-1.16.4-1.69-.25a1.85,1.85,0,0,1,0-1.88,2.54,2.54,0,0,1-2.19-.88,2.78,2.78,0,0,1,.68-4,3,3,0,0,1,1.92-.67,2,2,0,0,1,1-1.69Zm-2.85,2.46a1.29,1.29,0,1,0,1.63,2,1.29,1.29,0,0,0-1.63-2Zm3.32,6.73c.37.47.94.36,2.15-.62.93-.76.87-1.48.7-1.69s-1-.35-2.4.79C137.33,171.29,137.46,171.92,137.67,172.17Z"/><path class="cls-6" d="M142.5,168.89a3.18,3.18,0,0,0,.63-.46,1.19,1.19,0,0,0,.53-1.26,2,2,0,0,0-.37-.89,3.6,3.6,0,0,0-.78-.55L136.6,162,138,160.8l4.1,2.81,0,0-2.1-4.51,1.41-1.21,3.21,7.54c.83,2.23.71,3.11-.45,4.11a6.88,6.88,0,0,1-.72.54Z"/><path class="cls-6" d="M147.39,163l-.67.6L145.29,162l1.54-1.38,1.43,1.58.79,2.31-.72.65Z"/><path class="cls-6" d="M47.34,203.55l3.48-.84c2.79-.67,5.09.41,6,4.12s-.67,5.73-3.46,6.41l-3.48.84Zm4.14,8.35,1.35-.32c2.3-.56,2.43-2.38,2-4.26s-1.41-3.44-3.71-2.89l-1.34.33Z"/><path class="cls-6" d="M63.27,210.57,63,210a4.06,4.06,0,0,1-2.1,1.47,2,2,0,0,1-2.61-1.4c-.5-1.7.63-3,3.44-4.19l-.19-.63c-.17-.58-.72-.76-1.35-.57A2,2,0,0,0,58.78,206l-1.4-.54a3.48,3.48,0,0,1,2.39-2.18c2-.54,3.11-.06,3.76,2.19l1,3.53a3.21,3.21,0,0,0,.46,1ZM62,207c-1.12.58-2.37,1.2-2.06,2.25a.84.84,0,0,0,1.12.63,3.17,3.17,0,0,0,1.41-1.27Z"/><path class="cls-6" d="M64.46,202l-.8-2.46,1.77-.58.8,2.46,1.46-.48.46,1.43-1.45.47L68.07,207c.14.4.37.45.81.31a4.37,4.37,0,0,0,.77-.41l.47,1.45a11.36,11.36,0,0,1-1.35.57,1.65,1.65,0,0,1-2.39-1.11l-1.45-4.42-1,.34-.47-1.43Z"/><path class="cls-6" d="M75,206.61l-.35-.59a4.13,4.13,0,0,1-2,1.61,2,2,0,0,1-2.7-1.22c-.61-1.66.42-3,3.15-4.41l-.23-.62c-.2-.56-.77-.71-1.39-.48a2,2,0,0,0-1.28,1.49l-1.44-.45A3.53,3.53,0,0,1,71,199.6c2-.68,3.09-.27,3.9,1.93L76.18,205a3.14,3.14,0,0,0,.53,1Zm-1.46-3.44c-1.09.65-2.29,1.36-1.91,2.39a.84.84,0,0,0,1.16.55,3.2,3.2,0,0,0,1.32-1.36Z"/><path class="cls-6" d="M79.46,205l-.84.33-.77-2,1.92-.75.78,2L80.47,207l-.91.36Z"/></g></g></g></g></svg>