<svg xmlns="http://www.w3.org/2000/svg" xmlns:xlink="http://www.w3.org/1999/xlink" viewBox="0 0 243.09 242.56"><defs><style>.cls-1,.cls-2,.cls-3,.cls-4,.cls-5{stroke:#fff;stroke-miterlimit:10;}.cls-1{fill:url(#New_Gradient_Swatch_6);}.cls-2,.cls-6{fill:#fff;}.cls-3{fill:url(#linear-gradient);}.cls-4{fill:url(#linear-gradient-2);}.cls-5{fill:url(#linear-gradient-3);}</style><linearGradient id="New_Gradient_Swatch_6" x1="0.5" y1="121.28" x2="242.06" y2="121.28" gradientUnits="userSpaceOnUse"><stop offset="0" stop-color="#7b6f76"/><stop offset="0.33" stop-color="#7d7d7f"/><stop offset="0.96" stop-color="#81a296"/><stop offset="1" stop-color="#81a598"/></linearGradient><linearGradient id="linear-gradient" x1="71.27" y1="69.26" x2="148.58" y2="-8.05" gradientUnits="userSpaceOnUse"><stop offset="0" stop-color="#a73c60"/><stop offset="0.67" stop-color="#dfb9c6"/><stop offset="0.97" stop-color="#f6ebef"/></linearGradient><linearGradient id="linear-gradient-2" x1="115.35" y1="128.44" x2="186.69" y2="57.1" gradientUnits="userSpaceOnUse"><stop offset="0" stop-color="#a73b5f"/><stop offset="0.68" stop-color="#deb5c3"/><stop offset="1" stop-color="#f5e9ed"/></linearGradient><linearGradient id="linear-gradient-3" x1="197.44" y1="169.99" x2="219.94" y2="86.02" gradientUnits="userSpaceOnUse"><stop offset="0" stop-color="#a63a5e"/><stop offset="0.09" stop-color="#ae4b6c"/><stop offset="0.72" stop-color="#e3c0cc"/><stop offset="1" stop-color="#f8eff2"/></linearGradient></defs><title>Q4</title><g id="Layer_2" data-name="Layer 2"><g id="Layer_1-2" data-name="Layer 1"><g id="Layer_3" data-name="Layer 3"><g id="BOTTOM_LEFT" data-name="BOTTOM LEFT"><path class="cls-1" d="M157.84,1.09c0-.2,0-.39,0-.59H.5c0,133.41,108.15,241.56,241.56,241.56V85.93A84.85,84.85,0,0,1,157.84,1.09Z"/><path class="cls-2" d="M157.84,1.09c0-.2,0-.39,0-.59H57.09c0,102.15,82.82,185,185,185V85.93A84.85,84.85,0,0,1,157.84,1.09Z"/><path class="cls-3" d="M157.84,1.2H67.28c0,32.19,7.35,59.63,23.44,87.51l78.44-45.29A84.45,84.45,0,0,1,157.84,1.2Z"/><path class="cls-4" d="M169.27,43.61,90.83,88.9c16.1,27.87,36.19,48,64.06,64l45.29-78.43A85.22,85.22,0,0,1,169.27,43.61Z"/><path class="cls-5" d="M200.36,74.63l-45.28,78.43c27.87,16.1,55.32,23.45,87.51,23.45V86A84.52,84.52,0,0,1,200.36,74.63Z"/><path d="M96.11,23.12v1.14H94.6v5.6H93.31v-5.6h-1.5V23.12Z"/><path d="M96.35,29.86V24.78H97.5v.68h0a1.25,1.25,0,0,1,1.21-.77V26a2.63,2.63,0,0,0-.62-.13.55.55,0,0,0-.58.56v3.47Z"/><path d="M103,24.78v5.08h-1.14v-.57a2.11,2.11,0,0,1-1.32.67c-.71,0-1.09-.37-1.09-1.31V24.78h1.18v3.74c0,.34.11.56.43.56a1.39,1.39,0,0,0,.76-.46V24.78Z"/><path d="M106.38,26.33a.88.88,0,0,0-.82-.69.45.45,0,0,0-.47.46c0,.79,2.29.8,2.29,2.32A1.5,1.5,0,0,1,105.69,30c-.71,0-1.34-.18-1.91-1.45l1-.29a.87.87,0,0,0,.86.78c.36,0,.57-.16.57-.44,0-1-2.29-.74-2.29-2.45a1.44,1.44,0,0,1,1.6-1.42A1.84,1.84,0,0,1,107.35,26Z"/><path d="M107.78,26V25h.46V23.63h1.18V25h.76V26h-.76v2.6c0,.25.22.37.53.37h.24v1a3.89,3.89,0,0,1-.68.05c-.76,0-1.27-.28-1.27-1V26Z"/><path d="M113.37,26.27a1.68,1.68,0,0,1,1.88-1.58c1.25,0,1.73.64,1.73,1.54v3.22a1.84,1.84,0,0,0,.06.41h-1.17c0-.13-.05-.28-.09-.49a2,2,0,0,1-1.4.59,1.07,1.07,0,0,1-1.16-1.22c0-1.17,1.12-1.68,2.58-2.12v-.37a.55.55,0,0,0-.6-.61.64.64,0,0,0-.66.63Zm2.43,1.11c-.7.24-1.41.64-1.41,1.17a.49.49,0,0,0,.53.53,1.23,1.23,0,0,0,.88-.47Z"/><path d="M118.15,29.86V24.78h1.14v.58a2.11,2.11,0,0,1,1.32-.67c.71,0,1.09.36,1.09,1.31v3.86h-1.18V26.13c0-.34-.11-.56-.43-.56a1.39,1.39,0,0,0-.76.46v3.83Z"/><path d="M125.29,29.86v-.61h0A1.67,1.67,0,0,1,124,30c-.92,0-1.29-.71-1.29-2V26.71c0-1.31.37-2,1.29-2a2.08,2.08,0,0,1,1.17.56V23.12h1.18v6.74Zm-.1-3.93a.93.93,0,0,0-.71-.36c-.31,0-.58.2-.58,1.21v1.09c0,1,.27,1.21.58,1.21a.93.93,0,0,0,.71-.36Z"/><path d="M96.1,33.64v1.13H94.6v5.61H93.31V34.77h-1.5V33.64Z"/><path d="M96.35,40.38V35.3h1.14V36h0a1.28,1.28,0,0,1,1.22-.77v1.27a2.71,2.71,0,0,0-.63-.13.56.56,0,0,0-.58.56v3.48Z"/><path d="M99.35,36.78a1.68,1.68,0,0,1,1.88-1.58c1.25,0,1.73.64,1.73,1.55V40a1.84,1.84,0,0,0,.06.41h-1.17c0-.13,0-.29-.09-.5a1.91,1.91,0,0,1-1.4.59,1.07,1.07,0,0,1-1.16-1.21c0-1.18,1.12-1.68,2.58-2.12v-.38a.55.55,0,0,0-.6-.6.63.63,0,0,0-.66.62Zm2.43,1.11c-.7.25-1.41.64-1.41,1.17a.49.49,0,0,0,.53.53,1.22,1.22,0,0,0,.88-.46Z"/><path d="M104.13,40.38V35.3h1.14v.58a2.07,2.07,0,0,1,1.32-.68c.71,0,1.09.37,1.09,1.31v3.87H106.5V36.64c0-.33-.11-.56-.43-.56s-.51.24-.76.46v3.84Z"/><path d="M111,36.85a.87.87,0,0,0-.81-.69.46.46,0,0,0-.48.45c0,.79,2.3.81,2.3,2.32a1.5,1.5,0,0,1-1.69,1.54c-.71,0-1.34-.18-1.91-1.45l1-.29a.87.87,0,0,0,.86.79c.36,0,.57-.17.57-.45,0-1-2.3-.74-2.3-2.45a1.45,1.45,0,0,1,1.61-1.42A1.83,1.83,0,0,1,112,36.47Z"/><path d="M114,35.3v.61h0a1.7,1.7,0,0,1,1.25-.71c.92,0,1.29.71,1.29,2v1.23c0,1.31-.37,2-1.29,2a2.08,2.08,0,0,1-1.17-.56v2.26H113V35.3Zm.1,3.93a.92.92,0,0,0,.71.36c.31,0,.58-.2.58-1.21V37.3c0-1-.27-1.22-.58-1.22a.9.9,0,0,0-.71.37Z"/><path d="M117.51,36.78a1.69,1.69,0,0,1,1.89-1.58c1.25,0,1.72.64,1.72,1.55V40a1.41,1.41,0,0,0,.07.41H120c0-.13,0-.29-.08-.5a1.93,1.93,0,0,1-1.4.59,1.08,1.08,0,0,1-1.17-1.21c0-1.18,1.12-1.68,2.59-2.12v-.38a.55.55,0,0,0-.61-.6.63.63,0,0,0-.65.62ZM120,37.89c-.7.25-1.41.64-1.41,1.17a.48.48,0,0,0,.52.53,1.24,1.24,0,0,0,.89-.46Z"/><path d="M122.29,40.38V35.3h1.15V36h0a1.28,1.28,0,0,1,1.21-.77v1.27a2.63,2.63,0,0,0-.62-.13.56.56,0,0,0-.58.56v3.48Z"/><path d="M126.49,38.12v.67a.65.65,0,0,0,.69.73.64.64,0,0,0,.69-.71h1.18a1.65,1.65,0,0,1-1.87,1.66,1.72,1.72,0,0,1-1.87-1.8V37a1.87,1.87,0,0,1,3.74-.08v1.19Zm1.38-.95v-.28c0-.45-.21-.73-.69-.73s-.69.28-.69.73v.28Z"/><path d="M130.08,40.38V35.3h1.14v.58a2.07,2.07,0,0,1,1.31-.68c.72,0,1.1.37,1.1,1.31v3.87h-1.18V36.64c0-.33-.11-.56-.43-.56s-.51.24-.77.46v3.84Z"/><path d="M137.21,37.05v-.22c0-.39-.28-.6-.69-.6s-.69.21-.69.6v2c0,.39.28.59.69.59s.69-.2.69-.59v-.32h1.18v0a1.87,1.87,0,1,1-3.73,0V37.13a1.68,1.68,0,0,1,1.86-1.93,1.66,1.66,0,0,1,1.86,1.85Z"/><path d="M139.16,41.13h.34a.85.85,0,0,0,.85-.67,4.25,4.25,0,0,0-.21-1.07L139,35.3h1.2l.79,3.36h0l.74-3.36h1.19l-1.35,5.06c-.36,1.37-.84,1.81-2,1.81l-.37,0Z"/><path d="M197.62,117.35v1.14h-1.5v5.6h-1.29v-5.6h-1.5v-1.14Z"/><path d="M197.76,120.5a1.68,1.68,0,0,1,1.88-1.58c1.26,0,1.73.63,1.73,1.54v3.22a1.41,1.41,0,0,0,.07.41h-1.18c0-.13,0-.29-.08-.49a2,2,0,0,1-1.4.59,1.08,1.08,0,0,1-1.17-1.22c0-1.17,1.12-1.68,2.59-2.12v-.37a.56.56,0,0,0-.61-.61.63.63,0,0,0-.66.63Zm2.44,1.11c-.71.24-1.41.63-1.41,1.17a.49.49,0,0,0,.52.53,1.25,1.25,0,0,0,.89-.47Z"/><path d="M202.69,117.35h1.18v6.74h-1.18Z"/><path d="M206.22,121.83v.67a.65.65,0,0,0,.69.73.63.63,0,0,0,.69-.71h1.18a1.65,1.65,0,0,1-1.87,1.67,1.71,1.71,0,0,1-1.86-1.81v-1.66a1.87,1.87,0,0,1,3.73-.07v1.18Zm1.38-1v-.28c0-.45-.21-.73-.69-.73a.64.64,0,0,0-.69.73v.28Z"/><path d="M209.81,124.09V119H211v.58a2.11,2.11,0,0,1,1.32-.67c.72,0,1.09.36,1.09,1.31v3.86h-1.18v-3.73c0-.34-.11-.56-.43-.56a1.43,1.43,0,0,0-.76.45v3.84Z"/><path d="M214,120.19v-1h.47v-1.39h1.17v1.39h.76v1h-.76v2.6c0,.25.22.37.54.37h.23v1a3.85,3.85,0,0,1-.67,0c-.77,0-1.27-.28-1.27-1v-3Z"/><path d="M121.15,81.93V75.19H123l1.17,4.43h0l1.16-4.43h1.81v6.74H126v-5.3h0l-1.38,5.3h-1l-1.37-5.3h0v5.3Z"/><path d="M128.21,78.34a1.7,1.7,0,0,1,1.89-1.58c1.25,0,1.73.64,1.73,1.54v3.22a1.4,1.4,0,0,0,.06.41h-1.17c0-.13-.05-.29-.09-.49a2,2,0,0,1-1.4.59,1.08,1.08,0,0,1-1.17-1.22c0-1.17,1.12-1.68,2.59-2.12v-.37a.55.55,0,0,0-.61-.61.63.63,0,0,0-.65.63Zm2.44,1.11c-.7.24-1.41.63-1.41,1.17a.49.49,0,0,0,.52.53,1.24,1.24,0,0,0,.89-.47Z"/><path d="M133,81.93V76.85h1.14v.68h0a1.27,1.27,0,0,1,1.22-.77V78a2.28,2.28,0,0,0-.63-.13.56.56,0,0,0-.58.56v3.47Z"/><path d="M136.16,81.93V75.19h1.18v3.63h0l1.25-2h1.32l-1.17,1.72L140,81.93h-1.24l-.86-2.38-.59.83v1.55Z"/><path d="M141.86,79.67v.68a.64.64,0,0,0,.69.72.63.63,0,0,0,.69-.71h1.18A1.65,1.65,0,0,1,142.55,82a1.71,1.71,0,0,1-1.86-1.81V78.56a1.87,1.87,0,0,1,3.73-.07v1.18Zm1.38-1v-.28c0-.45-.21-.73-.69-.73a.64.64,0,0,0-.69.73v.28Z"/><path d="M145,78v-1h.46V75.7h1.18v1.38h.76v1h-.76v2.6c0,.25.22.37.53.37h.24v1a3.89,3.89,0,0,1-.68,0c-.76,0-1.27-.28-1.27-1V78Z"/><path d="M148.2,76V74.91h1.17V76Zm1.17.87v5.08H148.2V76.85Z"/><path d="M150.65,81.93V76.85h1.14v.58a2.11,2.11,0,0,1,1.31-.67c.72,0,1.1.36,1.1,1.31v3.86H153V78.2c0-.34-.11-.56-.43-.56a1.45,1.45,0,0,0-.77.46v3.83Z"/><path d="M159.22,77.79a2.33,2.33,0,0,0-.36-.08,1.59,1.59,0,0,0-.4.12,4.14,4.14,0,0,1,.15.89c0,1.27-.55,2-1.7,2a1.42,1.42,0,0,1-.49-.07c-.07.1-.2.18-.2.3,0,.64,2.95-.34,2.95,1.5,0,.87-.9,1.28-2.26,1.28S155,83.37,155,82.8c0-.38.43-.61.71-.79a.84.84,0,0,1-.48-.72c0-.4.42-.67.71-.85a1.86,1.86,0,0,1-.77-1.77c0-1.09.42-1.91,1.74-1.91a1.76,1.76,0,0,1,1.32.59,1.25,1.25,0,0,1,1-.59Zm-2.89,4.37c-.12.12-.25.22-.25.41s.39.37,1.08.37.89-.14.89-.4-.08-.24-.43-.27Zm.54-4.45c-.45,0-.62.31-.62,1.1,0,.64.21,1,.56,1,.51,0,.67-.19.67-1.08C157.48,78,157.28,77.71,156.87,77.71Z"/><path d="M121,87.86c0-1.66.88-2.26,2.13-2.26s2.13.6,2.13,2.26v2.41c0,1.67-.88,2.26-2.13,2.26S121,91.94,121,90.27Zm1.29,2.58c0,.75.33,1,.84,1s.84-.2.84-1V87.7c0-.75-.33-1-.84-1s-.84.21-.84,1Z"/><path d="M126.25,92.44V87.36h1.15V88h0a1.26,1.26,0,0,1,1.21-.76v1.27a2.21,2.21,0,0,0-.62-.13.55.55,0,0,0-.58.56v3.47Z"/><path d="M133.26,88.29c-.09,0-.27-.07-.36-.07a2,2,0,0,0-.4.11,4.34,4.34,0,0,1,.15.9c0,1.27-.54,2-1.7,2a1.42,1.42,0,0,1-.49-.07c-.06.09-.2.18-.2.3,0,.63,3-.35,3,1.49,0,.87-.9,1.28-2.26,1.28s-1.94-.35-1.94-.92c0-.38.43-.62.71-.8a.83.83,0,0,1-.49-.71c0-.41.42-.68.71-.85a1.87,1.87,0,0,1-.77-1.77c0-1.09.43-1.91,1.74-1.91a1.78,1.78,0,0,1,1.33.59,1.25,1.25,0,0,1,1-.59Zm-2.89,4.38c-.12.12-.24.22-.24.41s.38.37,1.07.37.89-.14.89-.4-.08-.25-.43-.27Zm.54-4.45c-.45,0-.61.31-.61,1.1s.2,1,.56,1,.67-.18.67-1.07C131.53,88.55,131.32,88.22,130.91,88.22Z"/><path d="M133.92,88.84a1.68,1.68,0,0,1,1.89-1.57c1.25,0,1.73.63,1.73,1.54V92a1.4,1.4,0,0,0,.06.41h-1.18c0-.13,0-.29-.08-.49a2,2,0,0,1-1.4.58,1.08,1.08,0,0,1-1.17-1.21c0-1.18,1.12-1.68,2.59-2.12v-.37a.55.55,0,0,0-.61-.61.63.63,0,0,0-.65.62ZM136.36,90c-.7.24-1.41.63-1.41,1.16a.49.49,0,0,0,.52.54,1.24,1.24,0,0,0,.89-.47Z"/><path d="M138.71,92.44V87.36h1.13v.58a2.13,2.13,0,0,1,1.32-.67c.72,0,1.09.36,1.09,1.3v3.87h-1.17V88.71c0-.34-.11-.57-.43-.57s-.52.24-.77.46v3.84Z"/><path d="M143.53,86.48V85.42h1.17v1.06Zm1.17.88v5.08h-1.17V87.36Z"/><path d="M145.89,87.36h3.38v1l-2.16,3h2.16v1H145.7v-1l2.12-3h-1.93Z"/><path d="M150,88.84a1.68,1.68,0,0,1,1.89-1.57c1.25,0,1.72.63,1.72,1.54V92a1.41,1.41,0,0,0,.07.41h-1.18c0-.13,0-.29-.08-.49a2,2,0,0,1-1.4.58,1.08,1.08,0,0,1-1.17-1.21c0-1.18,1.12-1.68,2.59-2.12v-.37a.55.55,0,0,0-.61-.61.63.63,0,0,0-.65.62ZM152.45,90c-.7.24-1.41.63-1.41,1.16a.49.49,0,0,0,.52.54,1.24,1.24,0,0,0,.89-.47Z"/><path d="M154.29,88.54v-1h.47V86.2h1.17v1.38h.76v1h-.76v2.59c0,.25.22.38.54.38h.23v1a5,5,0,0,1-.67,0c-.77,0-1.27-.28-1.27-1v-3Z"/><path d="M157.54,86.48V85.42h1.18v1.06Zm1.18.88v5.08h-1.18V87.36Z"/><path d="M159.9,89.19a1.87,1.87,0,1,1,3.73,0v1.42a1.87,1.87,0,1,1-3.73,0Zm1.17,1.72c0,.39.28.6.69.6s.7-.21.7-.6v-2c0-.39-.28-.6-.7-.6s-.69.21-.69.6Z"/><path d="M164.66,92.44V87.36h1.14v.58a2.11,2.11,0,0,1,1.32-.67c.72,0,1.09.36,1.09,1.3v3.87H167V88.71c0-.34-.11-.57-.43-.57s-.51.24-.76.46v3.84Z"/><path d="M120.94,99.36a1.7,1.7,0,0,1,1.89-1.58c1.25,0,1.73.63,1.73,1.54v3.22a1.4,1.4,0,0,0,.06.41h-1.17c0-.13,0-.29-.09-.49a2,2,0,0,1-1.4.59,1.08,1.08,0,0,1-1.17-1.22c0-1.17,1.12-1.68,2.59-2.12v-.37a.55.55,0,0,0-.61-.61.63.63,0,0,0-.65.63Zm2.44,1.11c-.7.24-1.41.63-1.41,1.17a.49.49,0,0,0,.52.53,1.24,1.24,0,0,0,.89-.47Z"/><path d="M125.73,103V97.87h1.14v.58a2.11,2.11,0,0,1,1.31-.67c.72,0,1.1.36,1.1,1.31V103H128.1V99.22c0-.34-.11-.56-.43-.56a1.49,1.49,0,0,0-.77.45V103Z"/><path d="M132.86,103v-.61h0a1.71,1.71,0,0,1-1.26.71c-.91,0-1.28-.71-1.28-2V99.8c0-1.31.37-2,1.28-2a2.07,2.07,0,0,1,1.18.56V96.21H134V103ZM132.77,99a.93.93,0,0,0-.71-.36c-.32,0-.58.2-.58,1.21V101c0,1,.26,1.22.58,1.22a.91.91,0,0,0,.71-.37Z"/><path d="M137.23,103l1.67-6.74h1.65l1.63,6.74H141l-.33-1.42h-1.78l-.37,1.42Zm1.84-2.56h1.28l-.63-2.72h0Z"/><path d="M146.77,98.81a2.45,2.45,0,0,0-.37-.08,2,2,0,0,0-.4.11,3.76,3.76,0,0,1,.15.9c0,1.27-.54,2-1.7,2a1.33,1.33,0,0,1-.48-.07c-.07.1-.21.18-.21.3,0,.64,3-.34,3,1.5,0,.86-.9,1.28-2.26,1.28s-1.94-.36-1.94-.93c0-.38.43-.62.71-.79a.86.86,0,0,1-.49-.72c0-.4.42-.67.71-.85a1.87,1.87,0,0,1-.76-1.77c0-1.09.42-1.91,1.73-1.91a1.78,1.78,0,0,1,1.33.59,1.25,1.25,0,0,1,1-.59Zm-2.9,4.37c-.12.12-.24.22-.24.41s.38.37,1.07.37.89-.14.89-.4-.07-.24-.43-.27Zm.54-4.45c-.44,0-.61.31-.61,1.1s.2,1,.56,1,.67-.19.67-1.08C145,99.06,144.82,98.73,144.41,98.73Z"/><path d="M148.62,100.69v.67a.65.65,0,0,0,.69.73.64.64,0,0,0,.69-.71h1.18a1.65,1.65,0,0,1-1.87,1.67,1.73,1.73,0,0,1-1.87-1.81V99.58a1.87,1.87,0,0,1,3.74-.07v1.18Zm1.38-1v-.28c0-.45-.21-.73-.69-.73s-.69.28-.69.73v.28Z"/><path d="M152.21,103V97.87h1.14v.58a2.11,2.11,0,0,1,1.31-.67c.72,0,1.1.36,1.1,1.31V103h-1.18V99.22c0-.34-.11-.56-.43-.56a1.49,1.49,0,0,0-.77.45V103Z"/><path d="M159.34,99.63V99.4c0-.39-.28-.59-.69-.59s-.69.2-.69.59v2c0,.39.28.6.69.6s.69-.21.69-.6v-.32h1.18v0a1.87,1.87,0,1,1-3.73,0V99.7a1.86,1.86,0,1,1,3.72-.07Z"/><path d="M161.29,103.7a1.94,1.94,0,0,0,.35,0,.86.86,0,0,0,.84-.67,4.31,4.31,0,0,0-.21-1.08l-1.18-4.1h1.2l.79,3.36h0l.74-3.36H165l-1.35,5.06c-.36,1.38-.84,1.82-2,1.82l-.37,0Z"/><path d="M121.15,113.46v-6.74H123l1.17,4.43h0l1.16-4.43h1.81v6.74H126v-5.3h0l-1.38,5.3h-1l-1.37-5.3h0v5.3Z"/><path d="M128.21,109.87a1.7,1.7,0,0,1,1.89-1.58c1.25,0,1.73.64,1.73,1.54v3.22a1.4,1.4,0,0,0,.06.41h-1.17c0-.13-.05-.29-.09-.49a2,2,0,0,1-1.4.59,1.08,1.08,0,0,1-1.17-1.22c0-1.17,1.12-1.68,2.59-2.12v-.37a.55.55,0,0,0-.61-.61.63.63,0,0,0-.65.63Zm2.44,1.11c-.7.24-1.41.64-1.41,1.17a.49.49,0,0,0,.52.53,1.24,1.24,0,0,0,.89-.47Z"/><path d="M133,113.46v-5.08h1.14V109a2.08,2.08,0,0,1,1.31-.67c.72,0,1.09.36,1.09,1.31v3.86h-1.17v-3.73c0-.34-.11-.56-.43-.56a1.45,1.45,0,0,0-.77.46v3.83Z"/><path d="M137.56,109.87a1.68,1.68,0,0,1,1.88-1.58c1.25,0,1.73.64,1.73,1.54v3.22a1.41,1.41,0,0,0,.07.41h-1.18c0-.13-.05-.29-.09-.49a2,2,0,0,1-1.4.59,1.07,1.07,0,0,1-1.16-1.22c0-1.17,1.12-1.68,2.58-2.12v-.37a.55.55,0,0,0-.6-.61.63.63,0,0,0-.66.63ZM140,111c-.7.24-1.41.64-1.41,1.17a.49.49,0,0,0,.53.53,1.23,1.23,0,0,0,.88-.47Z"/><path d="M146.24,109.32a2.33,2.33,0,0,0-.36-.08,2,2,0,0,0-.4.11,4.34,4.34,0,0,1,.15.9c0,1.27-.54,2-1.7,2a1.42,1.42,0,0,1-.49-.07c-.06.1-.2.18-.2.3,0,.64,2.95-.34,2.95,1.5,0,.87-.9,1.28-2.26,1.28s-1.94-.36-1.94-.93c0-.38.42-.61.7-.79a.84.84,0,0,1-.48-.72c0-.4.42-.67.71-.85a1.86,1.86,0,0,1-.77-1.76c0-1.1.42-1.92,1.74-1.92a1.78,1.78,0,0,1,1.33.59,1.22,1.22,0,0,1,1-.59Zm-2.89,4.37c-.12.12-.24.22-.24.41s.38.37,1.07.37.89-.14.89-.4-.08-.24-.43-.27Zm.54-4.45c-.45,0-.62.31-.62,1.1,0,.64.21,1,.56,1,.51,0,.68-.19.68-1.08C144.51,109.57,144.3,109.24,143.89,109.24Z"/><path d="M148.1,111.2v.68a.64.64,0,0,0,.69.72.63.63,0,0,0,.69-.7h1.17a1.64,1.64,0,0,1-1.86,1.66,1.72,1.72,0,0,1-1.87-1.81v-1.66a1.87,1.87,0,0,1,3.73-.07v1.18Zm1.38-1V110a.64.64,0,0,0-.69-.73c-.48,0-.69.28-.69.73v.28Z"/><path d="M151.68,108.38h1.14V109a2,2,0,0,1,1.26-.67,1,1,0,0,1,.9.77,1.76,1.76,0,0,1,1.25-.77c.71,0,1.08.43,1.08,1.34v3.83h-1.18V109.6c0-.34-.12-.43-.31-.43a1.26,1.26,0,0,0-.74.46v3.83h-1.17V109.6c0-.34-.13-.43-.32-.43a1.13,1.13,0,0,0-.73.46v3.83h-1.18Z"/><path d="M159.51,111.2v.68a.64.64,0,0,0,.69.72.63.63,0,0,0,.69-.7h1.18a1.64,1.64,0,0,1-1.87,1.66,1.71,1.71,0,0,1-1.86-1.81v-1.66a1.87,1.87,0,0,1,3.73-.07v1.18Zm1.38-1V110c0-.45-.21-.73-.69-.73a.64.64,0,0,0-.69.73v.28Z"/><path d="M163.1,113.46v-5.08h1.14V109a2.11,2.11,0,0,1,1.32-.67c.72,0,1.09.36,1.09,1.31v3.86h-1.18v-3.73c0-.34-.11-.56-.43-.56a1.39,1.39,0,0,0-.76.46v3.83Z"/><path d="M167.27,109.56v-1h.47v-1.38h1.17v1.38h.76v1h-.76v2.6c0,.25.22.37.54.37h.23v1a3.85,3.85,0,0,1-.67,0c-.77,0-1.27-.28-1.27-1v-3Z"/><path class="cls-6" d="M113.22,173.75c-2.39-1.74-2.47-4.32-.37-7.17s4.57-3.55,7-1.8,2.47,4.32.37,7.18S115.6,175.5,113.22,173.75Zm5.55-7.56c-1.36-1-2.76-.43-4.26,1.61s-1.64,3.54-.27,4.55,2.76.43,4.26-1.62S120.14,167.19,118.77,166.19Z"/><path class="cls-6" d="M118.05,177.11l4.38-6.45,1.42,1-.75,1.11h0a2.32,2.32,0,0,1,2.65,0l-1.11,1.62a2.42,2.42,0,0,0-.26-.2,2.24,2.24,0,0,0-2.15.07l-2.67,3.92Z"/><path class="cls-6" d="M131.28,177.64a2.45,2.45,0,0,0-1.11-.49,2.25,2.25,0,0,1-.38,1.39c-.78,1.25-2.17,1.61-3.83.57-.68-.43-1.24-.74-1.48-.36-.67,1.07,4.58,2.34,2.92,5-.59.94-2.18,1.35-4.29,0-1.78-1.11-2.61-2.38-2-3.42a1.37,1.37,0,0,1,2-.47l0,0c-.19-.38-.76-1-.31-1.68a1.81,1.81,0,0,1,1.79-.56,2.59,2.59,0,0,1,.12-2.37,2.79,2.79,0,0,1,4-.66,3.15,3.15,0,0,1,1.26,1.6,2,2,0,0,1,1.91.39Zm-8.55,3.41c-.32.51,0,1,1.29,1.84,1,.64,1.68.34,1.82.11s0-1.05-1.51-2C123.46,180.45,122.91,180.77,122.73,181.05Zm5.3-5.31a1.29,1.29,0,1,0,.4,1.77A1.28,1.28,0,0,0,128,175.74Z"/><path class="cls-6" d="M132.06,185.84l.23-.64a4,4,0,0,1-2.52-.5,2,2,0,0,1-.79-2.85c.88-1.53,2.6-1.62,5.4-.42l.33-.57c.3-.52,0-1-.52-1.37a2,2,0,0,0-2,0l-.59-1.39a3.54,3.54,0,0,1,3.24.22c1.79,1.09,2.19,2.2,1,4.23l-1.84,3.18a3.64,3.64,0,0,0-.43,1.05Zm1.7-3.33c-1.2-.41-2.51-.88-3.06.07a.86.86,0,0,0,.32,1.25,3.26,3.26,0,0,0,1.9.14Z"/><path class="cls-6" d="M135.26,187.58l3.58-6.92,1.52.78-.39.75a4.34,4.34,0,0,1,2.59.22c1.39.72,1.58,2,.85,3.38L141,190.53l-1.65-.85,2.33-4.5c.48-.93.34-1.38-.22-1.67a2.42,2.42,0,0,0-1.93-.07l-2.58,5Z"/><path class="cls-6" d="M144.45,192.3l-1.67-.8,3.39-7,1.68.81Zm2.35-9.12.76-1.57,1.67.81-.76,1.57Z"/><path class="cls-6" d="M149.29,185.94l5.27,2.37-.54,1.21-5.47,3,3.45,1.55-.61,1.37-5.59-2.51.55-1.2,5.47-3-3.14-1.42Z"/><path class="cls-6" d="M156.12,197.42l.14-.67a4.1,4.1,0,0,1-2.56-.15,2,2,0,0,1-1.18-2.72c.67-1.64,2.35-2,5.29-1.15l.25-.61c.23-.56-.09-1-.7-1.29a2,2,0,0,0-2,.24l-.77-1.3a3.52,3.52,0,0,1,3.24-.22c1.92.83,2.47,1.88,1.59,4l-1.39,3.4a3.71,3.71,0,0,0-.28,1.1Zm1.22-3.54c-1.24-.24-2.6-.52-3,.49a.85.85,0,0,0,.49,1.19,3.2,3.2,0,0,0,1.89-.12Z"/><path class="cls-6" d="M162.41,191.5l.9-2.42,1.74.66-.9,2.41,1.43.54-.53,1.4-1.43-.53-1.55,4.12c-.15.4,0,.58.44.75a4.21,4.21,0,0,0,.86.16l-.54,1.43a11.5,11.5,0,0,1-1.42-.4,1.65,1.65,0,0,1-1.16-2.37l1.63-4.35-1-.38.53-1.4Z"/><path class="cls-6" d="M166.06,201.09l-1.75-.62,2.6-7.35,1.76.62Zm1.34-9.33.58-1.64,1.75.62-.58,1.64Z"/><path class="cls-6" d="M173.15,195.17c2,.65,2.73,2.54,2,4.89s-2.47,3.46-4.48,2.81-2.74-2.55-2-4.9S171.13,194.51,173.15,195.17Zm-.47,1.42c-1-.32-1.7.3-2.24,1.95s-.32,2.58.67,2.9,1.7-.3,2.24-1.95S173.67,196.91,172.68,196.59Z"/><path class="cls-6" d="M175.21,204.08l2.15-7.49,1.64.47-.23.8a4.37,4.37,0,0,1,2.58-.29c1.5.43,1.94,1.62,1.5,3.15l-1.47,5.13-1.79-.51,1.4-4.87c.29-1,.06-1.42-.54-1.6a2.38,2.38,0,0,0-1.9.32L177,204.6Z"/><path class="cls-6" d="M63.84,120.07l9-6,1.6,2.43-5.16,5.9,0,0,7.46-2.41,1.62,2.45-9,6-1-1.5,7.11-4.69v0L67,124.92l-.87-1.32L72,116.91l0,0-7.11,4.7Z"/><path class="cls-6" d="M73,133.48l.48-.49a4.06,4.06,0,0,1-2.1-1.49,2,2,0,0,1,.44-2.92c1.43-1,3-.42,5.1,1.82l.53-.39c.49-.35.47-.93.09-1.47a2,2,0,0,0-1.79-.82l0-1.51a3.51,3.51,0,0,1,2.86,1.52c1.2,1.73,1.11,2.91-.79,4.28l-3,2.16a3.22,3.22,0,0,0-.82.78Zm2.91-2.35c-.93-.87-1.93-1.82-2.82-1.18a.85.85,0,0,0-.21,1.27,3.27,3.27,0,0,0,1.67.9Z"/><path class="cls-6" d="M75.09,136.18l6.13-4.82,1.06,1.35-1,.82,0,0a2.31,2.31,0,0,1,2.52.8l-1.55,1.22a1.7,1.7,0,0,0-.19-.27,2.23,2.23,0,0,0-2.07-.59l-3.72,2.92Z"/><path class="cls-6" d="M78.27,140.19l8.3-6.95,1.19,1.43-4.63,3.88,0,0,3.78-.17,1.37,1.63-3.71.11-2.16,5-1.28-1.51,1.58-3.57-1.45,0-1.84,1.54Z"/><path class="cls-6" d="M86.62,144.51c-1.18,1.1-1.17,2.06-.59,2.71a2.07,2.07,0,0,0,1.85.68l.27,1.56a3.52,3.52,0,0,1-3.36-1.38c-1.35-1.51-1-3.51.82-5.16s3.87-1.75,5.28-.17.84,3.51-.56,4.76l-.57.51Zm2.94,1.4a1.51,1.51,0,1,0-2-2.24Z"/><path class="cls-6" d="M94,146.33l1.87-1.79,1.28,1.35-1.87,1.78,1.06,1.11-1.08,1-1.06-1.1-3.19,3c-.3.29-.24.53.08.86a3.53,3.53,0,0,0,.7.52l-1.11,1.05a11.38,11.38,0,0,1-1.1-1,1.65,1.65,0,0,1,0-2.64l3.36-3.21-.74-.78,1.08-1Z"/><path class="cls-6" d="M93,156.49l-1.32-1.31,5.5-5.53L98.54,151Zm5.2-7.86,1.23-1.23,1.32,1.31-1.23,1.23Z"/><path class="cls-6" d="M94.52,158l5.31-5.72,1.25,1.17-.57.61a4.38,4.38,0,0,1,2.43.91c1.14,1.06,1,2.32-.08,3.49l-3.64,3.91-1.36-1.27,3.45-3.71c.72-.77.7-1.24.24-1.67a2.39,2.39,0,0,0-1.84-.58l-3.83,4.12Z"/><path class="cls-6" d="M109.88,162.58a2.53,2.53,0,0,0-1-.64,2.32,2.32,0,0,1-.57,1.32c-1,1.12-2.39,1.28-3.88,0-.61-.53-1.12-.92-1.41-.58-.82,1,4.19,3,2.17,5.36-.72.84-2.35,1-4.25-.59-1.6-1.36-2.24-2.73-1.44-3.67a1.37,1.37,0,0,1,2-.18l0,0c-.12-.41-.6-1.07-.06-1.71a1.84,1.84,0,0,1,1.85-.3,2.57,2.57,0,0,1,.46-2.32,2.8,2.8,0,0,1,4.1-.08,3.2,3.2,0,0,1,1,1.77,2,2,0,0,1,1.84.66Zm-8.95,2.15c-.39.45-.18,1,1,2,.91.78,1.61.58,1.78.38s.16-1.05-1.21-2.21C101.74,164.24,101.14,164.48,100.93,164.73Zm6-4.5a1.29,1.29,0,1,0,.13,1.81A1.28,1.28,0,0,0,106.94,160.23Z"/><path class="cls-6" d="M52,98l.56-.39a4.09,4.09,0,0,1-1.78-1.85,2,2,0,0,1,1-2.8c1.6-.75,3,.16,4.66,2.75l.6-.28c.54-.25.64-.82.36-1.42a2,2,0,0,0-1.6-1.15l.32-1.47a3.54,3.54,0,0,1,2.53,2c.85,1.92.54,3.06-1.58,4L53.73,99a3.47,3.47,0,0,0-.95.62Zm3.3-1.76c-.75-1-1.56-2.15-2.55-1.69a.86.86,0,0,0-.45,1.21,3.2,3.2,0,0,0,1.47,1.19Z"/><path class="cls-6" d="M53.51,101.15l7-3.52.78,1.52-.75.38a4.31,4.31,0,0,1,2,1.7c.71,1.39.14,2.52-1.28,3.24l-4.76,2.41-.85-1.66,4.53-2.29c.93-.48,1.08-.92.8-1.48a2.4,2.4,0,0,0-1.53-1.18l-5,2.54Z"/><path class="cls-6" d="M60.41,114.25l-.76-1.37.69-.49a2.85,2.85,0,0,1-1.9-1.37c-1-1.81.09-3.61,2.21-4.79,1.68-.94,3.9-.9,4.87.86a2.67,2.67,0,0,1,.16,2.07l0,0L69,107.37l.91,1.62Zm4.16-4.43a2.13,2.13,0,0,0-.12-1.58c-.54-1-1.64-1.09-3.08-.29s-1.92,1.79-1.38,2.76c.38.7.85.73,1.3.93Z"/><path class="cls-6" d="M48.13,56.64l-1.68.44-.72-2.74-8.8,2.33-.53-2,8.8-2.32-.72-2.74,1.68-.44Z"/><path class="cls-6" d="M38.82,63.36l.61-.3A4.06,4.06,0,0,1,38,61a2,2,0,0,1,1.39-2.61c1.7-.5,3,.62,4.19,3.43l.64-.19c.57-.17.75-.72.57-1.35a2,2,0,0,0-1.4-1.37l.54-1.41a3.51,3.51,0,0,1,2.18,2.39c.55,2,.07,3.11-2.18,3.76l-3.52,1a3.27,3.27,0,0,0-1,.46Zm3.53-1.23c-.58-1.13-1.21-2.37-2.26-2.06a.85.85,0,0,0-.63,1.12,3.29,3.29,0,0,0,1.27,1.41Z"/><path class="cls-6" d="M40,67l10.31-3.29.57,1.77L40.51,68.77Z"/><path class="cls-6" d="M44.93,70.8c-1.52.55-1.88,1.44-1.6,2.26a2.09,2.09,0,0,0,1.44,1.35L44.41,76a3.56,3.56,0,0,1-2.56-2.59c-.65-1.91.43-3.63,2.77-4.43s4.24-.1,4.93,1.91S49,74.41,47.18,75l-.73.25Zm2.17,2.44a1.51,1.51,0,1,0-1-2.84Z"/><path class="cls-6" d="M43.55,77.8,50.84,75l.61,1.6-.79.3a4.23,4.23,0,0,1,1.78,1.89c.56,1.45-.13,2.52-1.61,3.08l-5,1.91-.66-1.74,4.73-1.81c1-.37,1.18-.8,1-1.39a2.4,2.4,0,0,0-1.39-1.33l-5.26,2Z"/><path class="cls-6" d="M53.86,82.93l2.39-1L57,83.67l-2.39,1,.59,1.42-1.39.57-.59-1.41-4.07,1.68c-.39.16-.42.4-.24.83a3.91,3.91,0,0,0,.46.73l-1.41.59a11.69,11.69,0,0,1-.67-1.32,1.64,1.64,0,0,1,.93-2.46l4.29-1.78-.41-1,1.39-.58Z"/></g></g></g></g></svg>