<svg xmlns="http://www.w3.org/2000/svg" viewBox="0 0 243.09 242.56"><defs><style>.cls-1{fill:#ee2c24;}.cls-1,.cls-2{stroke:#fff;stroke-miterlimit:10;}.cls-2{fill:#fff;}</style></defs><title>Q4</title><g id="Layer_2" data-name="Layer 2"><g id="Layer_1-2" data-name="Layer 1"><g id="Layer_3" data-name="Layer 3"><g id="BOTTOM_LEFT" data-name="BOTTOM LEFT"><path class="cls-1" d="M157.84,1.09c0-.2,0-.39,0-.59H.5c0,133.41,108.15,241.56,241.56,241.56V85.93A84.85,84.85,0,0,1,157.84,1.09Z"/><path class="cls-2" d="M157.84,1.09c0-.2,0-.39,0-.59H57.09c0,102.15,82.82,185,185,185V85.93A84.85,84.85,0,0,1,157.84,1.09Z"/><path class="cls-1" d="M157.84,1.2H67.28c0,32.19,7.35,59.63,23.44,87.51l78.44-45.29A84.45,84.45,0,0,1,157.84,1.2Z"/><path class="cls-1" d="M169.27,43.61,90.83,88.9c16.1,27.87,36.19,48,64.06,64l45.29-78.43A85.22,85.22,0,0,1,169.27,43.61Z"/><path class="cls-1" d="M200.36,74.63l-45.28,78.43c27.87,16.1,55.32,23.45,87.51,23.45V86A84.52,84.52,0,0,1,200.36,74.63Z"/></g></g></g></g></svg>