<svg xmlns="http://www.w3.org/2000/svg" viewBox="0 0 29.22 54.37"><defs><style>.bc832da6-a112-4d0f-acdd-a4901b8686cd{fill:#006838;}</style></defs><g id="b2467562-2476-4f1b-a306-4c6a31eb990d" data-name="Layer 2"><g id="f50525b0-a88d-4cde-a9bf-4d093e87ea96" data-name="text for codepen"><path class="bc832da6-a112-4d0f-acdd-a4901b8686cd" d="M15.89,0A13.37,13.37,0,0,1,26.82,5.59c.8,1,.83,1.67.08,2.15a3.34,3.34,0,0,1-.76.48,2.05,2.05,0,0,1-.91.32c-.22,0-.56-.34-1-1-2.13-3.29-4.82-4.95-8.06-4.95A9,9,0,0,0,8.7,5.91a11.72,11.72,0,0,0-2.47,7.66A8.37,8.37,0,0,0,9.1,20.12a27.68,27.68,0,0,0,6.55,3.67c4.68,2.08,7.82,3.8,9.42,5.19a12.13,12.13,0,0,1,4.15,9.66A14.89,14.89,0,0,1,24.51,49.9a15.88,15.88,0,0,1-11.34,4.47A14,14,0,0,1,.48,47.5C.05,46.86.08,46.36.56,46A5.69,5.69,0,0,1,2,45a.71.71,0,0,1,1,.32,4.5,4.5,0,0,0,.4.71q4.32,5.59,8.86,5.59a10.3,10.3,0,0,0,7.91-3.27,11.41,11.41,0,0,0,2.79-7.91,9.66,9.66,0,0,0-3.51-7.9q-1.68-1.44-7.9-4.31a30.55,30.55,0,0,1-8-4.87A12,12,0,0,1,0,14.45,13.13,13.13,0,0,1,4.75,4.15,16.39,16.39,0,0,1,15.89,0Z"/></g></g></svg>