<svg xmlns="http://www.w3.org/2000/svg" viewBox="0 0 259.62 40.54"><defs><style>.bee86862-6b1a-435c-8355-e11baca52f5f{fill:#006838;}</style></defs><g id="a449917e-f8b8-49a2-a430-961a9d93dccc" data-name="Layer 2"><g id="b7d043cd-f305-4f11-a34d-3f2d3f08c2e0" data-name="text for codepen"><path class="bee86862-6b1a-435c-8355-e11baca52f5f" d="M9,6.17A1.9,1.9,0,0,0,8.9,5.4a1.7,1.7,0,0,0-.78-.09H1.32C.44,5.31,0,5.09,0,4.63v-1C0,3.2.55,3,1.66,3H20.31c1.06,0,1.6.23,1.6.69v1c0,.46-.42.68-1.26.68H14.87a5.65,5.65,0,0,0-1.2.06.72.72,0,0,0-.63.8v33a.85.85,0,0,1-1,1H10a.85.85,0,0,1-1-1Z"/><path class="bee86862-6b1a-435c-8355-e11baca52f5f" d="M48.33,23a1.86,1.86,0,0,0,.4.86L59.54,39.16a.49.49,0,0,1,.06.23c0,.54-.28.8-.86.8H56.06a1.66,1.66,0,0,1-1.38-.51L42,21.83a1.24,1.24,0,0,1-.28-.68c0-.39.42-.52,1.26-.4.53.07,2.19.07,5,0a7.83,7.83,0,0,0,5.58-2.24,7.16,7.16,0,0,0,2.2-5.32A7.81,7.81,0,0,0,53.2,7.1,9,9,0,0,0,47,4.84H40.38c-.8,0-1.2.33-1.2,1V39.22a.85.85,0,0,1-1,1H36.09a.85.85,0,0,1-1-1V4a.86.86,0,0,1,1-1H47A16.7,16.7,0,0,1,56.11,5.3a8.37,8.37,0,0,1,4.12,7.49A9.08,9.08,0,0,1,57,20a10.66,10.66,0,0,1-7.15,2.57C48.83,22.57,48.33,22.73,48.33,23Z"/><path class="bee86862-6b1a-435c-8355-e11baca52f5f" d="M247.72,23a1.76,1.76,0,0,0,.4.86l10.81,15.27a.49.49,0,0,1,.06.23c0,.54-.29.8-.86.8h-2.69a1.63,1.63,0,0,1-1.37-.51l-12.7-17.85a1.27,1.27,0,0,1-.29-.68c0-.39.42-.52,1.26-.4q.79.11,5,0a7.79,7.79,0,0,0,5.57-2.24,7.17,7.17,0,0,0,2.21-5.32,7.78,7.78,0,0,0-2.52-6.09,9,9,0,0,0-6.18-2.26h-6.63c-.8,0-1.2.33-1.2,1V39.22a.86.86,0,0,1-1,1h-2.11a.85.85,0,0,1-1-1V4a.86.86,0,0,1,1-1H246.4a16.74,16.74,0,0,1,9.1,2.29,8.39,8.39,0,0,1,4.12,7.49A9.08,9.08,0,0,1,256.36,20a10.71,10.71,0,0,1-7.16,2.57C248.21,22.57,247.72,22.73,247.72,23Z"/><path class="bee86862-6b1a-435c-8355-e11baca52f5f" d="M79.84,24.73c1.72-4.19,3.47-10,5.23-14.48.26-.73.55-1.1.85-1.1s.58.33.85,1L92,24.77c.26.62,1.5,3.82,1.77,4.47l3.68,9.31a1.48,1.48,0,0,0,1.37,1l2.49.06a1,1,0,0,0,.68-.17c.08-.15,0-.42-.12-.8L87.44.8C87.25.27,87,0,86.7,0s-.5.21-.69.63L71.37,38.85c-.19.54,0,.8.51.8h.91a1.15,1.15,0,0,0,1.14-.57l3.93-9.56"/><path class="bee86862-6b1a-435c-8355-e11baca52f5f" d="M200.08,18.71c0,.87.5,1.31,1.49,1.31H215c1.07,0,1.6.21,1.6.64v1c0,.5-.44.76-1.31.76H201.91c-1.18,0-1.79.3-1.83.91V36.9a.71.71,0,0,0,.63.79,5.65,5.65,0,0,0,1.2.06h14.93c.88,0,1.32.23,1.32.7v1.06c0,.42-.56.64-1.66.64H197a.85.85,0,0,1-1-1V3.94a.85.85,0,0,1,1-1h18.94c1.06,0,1.6.24,1.6.7v1c0,.47-.44.7-1.32.7h-14.3a5.65,5.65,0,0,0-1.2.06.72.72,0,0,0-.63.8Z"/><path class="bee86862-6b1a-435c-8355-e11baca52f5f" d="M179.59,23.17a1,1,0,0,0-.52-.26h-6c-.87,0-1.26.25-1.26.75v1.81c0,.44.53.66,1.61.66h2.28v5.8a4.74,4.74,0,0,1-.86,2.9c-.49.56-3.32,2-6.77,2.45-1.85.22-5,.53-7.67-.42A12.52,12.52,0,0,1,155.39,33c-2.49-3.28-3.72-7.53-3.72-12.75a20.77,20.77,0,0,1,3.68-12.59,11.33,11.33,0,0,1,9.52-5,13.44,13.44,0,0,1,7.61,2.29c2,1.34,3.18,2.75,3.5,4.24.11.45.31.68.63.68a1.65,1.65,0,0,0,.71-.23l.83-.45a.71.71,0,0,0,.33-.59,1.83,1.83,0,0,0-.33-1Q174.12.87,165,.76h-.31a17.19,17.19,0,0,0-4.41.55l-.24.07-.73.23a16.81,16.81,0,0,0-4.74,2.54l-.35.27-.3.25a4,4,0,0,0-.39.34l-.32.28-.41.39-.23.24c-.14.14-.28.28-.41.43a2.2,2.2,0,0,0-.2.23,19.78,19.78,0,0,0-5.18,13.8v.15c0,.29,0,.58,0,.86.34,10.64,8.12,19.15,17.66,19.15,1.46,0,5.9-.06,9.13-1.48a13.1,13.1,0,0,0,4.4-2.82,7.26,7.26,0,0,0,1.53-2.51l.1-.61Z"/><path class="bee86862-6b1a-435c-8355-e11baca52f5f" d="M129.8,39.73q-7.43-19-11.61-29.57c-.23-.65-.44-1-.63-1s-.28.36-.28,1.09V38.76c0,.65-.18,1-.52,1h-1.31a.43.43,0,0,1-.4-.17,1.67,1.67,0,0,1-.12-.8V3.52c0-.64.17-1,.52-1h3a1.8,1.8,0,0,1,1.77,1.26Q128.43,24.57,131.12,31c.19.49.36.74.51.74s.37-.21.52-.63l.09-28.6h2.69a.86.86,0,0,1,1,1V38.76a.86.86,0,0,1-1,1h-2.06"/></g></g></svg>